<svg version="1.1" viewBox="0.0 0.0 629.0 390.0" fill="none" stroke="none" stroke-linecap="square" stroke-miterlimit="10" width="629" height="390" xmlns:xlink="http://www.w3.org/1999/xlink" xmlns="http://www.w3.org/2000/svg"><path fill="#ffffff" d="M0 0L629.0 0L629.0 390.0L0 390.0L0 0Z" fill-rule="nonzero"/><path fill="#a98823" d="M346.0924 150.94174L461.7409 124.63821L461.7409 147.43822L346.0924 173.74173Z" fill-rule="nonzero"/><path fill="#a98823" d="M317.1803 136.23763C330.35037 136.23763 342.02264 142.17389 346.0924 150.94174L346.0924 173.74173C342.02264 164.97389 330.35037 159.03761 317.1803 159.03761Z" fill-rule="nonzero"/><path fill="#f1c232" d="M317.1803 51.11762C383.0307 51.11762 441.392 80.798996 461.7409 124.63821L346.0924 150.94174C342.02264 142.17389 330.35037 136.23763 317.1803 136.23763Z" fill-rule="nonzero"/><path fill="#885670" d="M352.62573 169.62825L462.6527 205.87057L462.6527 228.67058L352.62573 192.42825Z" fill-rule="nonzero"/><path fill="#885670" d="M477.11902 183.36766C477.11902 199.02989 472.17935 214.49898 462.6527 228.67058L462.6527 205.87057C472.17935 191.69897 477.11902 176.22989 477.11902 160.56766Z" fill-rule="nonzero"/><path fill="#885670" d="M354.03113 153.99178C355.0169 156.11552 355.519 158.33464 355.519 160.56766L355.519 183.36766C355.519 181.13463 355.0169 178.91551 354.03113 176.79178Z" fill-rule="nonzero"/><path fill="#c27ba0" d="M469.6796 127.688255C481.6264 153.42624 479.11365 181.38368 462.6527 205.87057L352.62573 169.62825C355.91794 164.73087 356.4205 159.13937 354.03113 153.99178Z" fill-rule="nonzero"/><path fill="#7e7596" d="M341.0839 180.40932L418.59467 245.9954L418.59467 268.7954L341.0839 203.20932Z" fill-rule="nonzero"/><path fill="#7e7596" d="M459.23993 232.11572C449.7133 246.28732 435.8346 258.81192 418.59467 268.7954L418.59467 245.9954C435.8346 236.01193 449.7133 223.48732 459.23993 209.31572Z" fill-rule="nonzero"/><path fill="#b4a7d6" d="M459.23993 209.31572C449.7133 223.48732 435.8346 236.01193 418.59467 245.9954L341.0839 180.40932C344.5319 178.41263 347.30762 175.9077 349.21295 173.07338Z" fill-rule="nonzero"/><path fill="#305a63" d="M308.08838 133.90054L285.30283 50.288246L285.30283 73.08825L308.08838 156.70053Z" fill-rule="nonzero"/><path fill="#305a63" d="M308.08838 133.90054C309.96603 133.64981 311.87326 133.5236 313.7848 133.5236L313.7848 156.32361C311.87326 156.32361 309.96603 156.44981 308.08838 156.70053Z" fill-rule="nonzero"/><path fill="#45818e" d="M285.30283 50.288246C294.69104 49.03462 304.22726 48.40361 313.7848 48.40361L313.7848 133.5236C311.87326 133.5236 309.96603 133.64981 308.08838 133.90054Z" fill-rule="nonzero"/><path fill="#678958" d="M293.613 138.00166L222.13832 69.13814L222.13832 91.93814L293.613 160.80167Z" fill-rule="nonzero"/><path fill="#678958" d="M293.613 138.00166C297.2333 136.16046 301.38962 134.90143 305.78528 134.31447L305.78528 157.11447C301.38962 157.70143 297.2333 158.96046 293.613 160.80167Z" fill-rule="nonzero"/><path fill="#93c47d" d="M222.13832 69.13814C240.23976 59.932114 261.02142 53.63699 282.99973 50.702183L305.78528 134.31447C301.38962 134.90143 297.2333 136.16046 293.613 138.00166Z" fill-rule="nonzero"/><path fill="#4e769a" d="M407.78534 266.83902C362.41745 293.1111 299.45474 298.67896 246.17844 281.13C192.90213 263.58105 158.8969 226.07248 158.8969 184.8564L158.8969 162.0564C158.8969 203.27248 192.90213 240.78105 246.17844 258.33C299.45474 275.87894 362.41745 270.31113 407.78534 244.039Z" fill-rule="nonzero"/><path fill="#4e769a" d="M280.4969 162.0564C280.4969 155.24457 285.15552 148.8444 293.02823 144.84052L293.02823 167.64052C285.15552 171.64441 280.4969 178.04457 280.4969 184.8564Z" fill-rule="nonzero"/><path fill="#6fa8dc" d="M407.78534 244.039C365.06552 268.77765 306.49185 275.27164 254.94196 260.98462C203.39206 246.69759 167.04436 213.89615 160.09546 175.39186C153.14656 136.88756 176.69894 98.78913 221.55353 75.97699L293.02823 144.84052C284.0573 149.40294 279.34683 157.02263 280.7366 164.7235C282.12637 172.42435 289.39594 178.98463 299.7059 181.84204C310.0159 184.69945 321.73062 183.40065 330.2746 178.45293Z" fill-rule="nonzero"/><path fill="#000000" d="M366.9249 101.17219L366.26865 102.95344L360.7999 102.95344L360.7999 102.70344Q363.22177 100.50031 364.20615 99.10969Q365.19052 97.70344 365.19052 96.54719Q365.19052 95.67219 364.64365 95.10969Q364.1124 94.53156 363.34677 94.53156Q362.6749 94.53156 362.12802 94.93781Q361.58115 95.34406 361.33115 96.10969L361.06552 96.10969Q361.2374 94.84406 361.94052 94.17219Q362.65927 93.48469 363.72177 93.48469Q364.84677 93.48469 365.59677 94.21906Q366.3624 94.93781 366.3624 95.92219Q366.3624 96.62531 366.03427 97.32844Q365.51865 98.43781 364.39365 99.67219Q362.69052 101.53156 362.25302 101.92219L364.6749 101.92219Q365.4249 101.92219 365.72177 101.87531Q366.01865 101.81281 366.25302 101.64094Q366.4874 101.46906 366.6749 101.17219L366.9249 101.17219ZM368.00302 98.37531Q368.00302 96.78156 368.4874 95.64094Q368.97177 94.50031 369.75302 93.93781Q370.37802 93.48469 371.03427 93.48469Q372.09677 93.48469 372.94052 94.57844Q374.00302 95.92219 374.00302 98.23469Q374.00302 99.84406 373.53427 100.96906Q373.08115 102.09406 372.34677 102.60969Q371.62802 103.12531 370.95615 103.12531Q369.64365 103.12531 368.75302 101.54719Q368.00302 100.23469 368.00302 98.37531ZM369.34677 98.54719Q369.34677 100.45344 369.81552 101.67219Q370.20615 102.68781 370.9874 102.68781Q371.34677 102.68781 371.7374 102.35969Q372.14365 102.01594 372.34677 101.25031Q372.65927 100.06281 372.65927 97.92219Q372.65927 96.34406 372.33115 95.28156Q372.09677 94.50031 371.70615 94.17219Q371.4249 93.93781 371.01865 93.93781Q370.56552 93.93781 370.19052 94.35969Q369.70615 94.92219 369.51865 96.14094Q369.34677 97.35969 369.34677 98.54719ZM376.25302 101.62531Q376.58115 101.62531 376.7999 101.85969Q377.01865 102.07844 377.01865 102.39094Q377.01865 102.70344 376.78427 102.92219Q376.56552 103.14094 376.25302 103.14094Q375.94052 103.14094 375.70615 102.92219Q375.4874 102.70344 375.4874 102.39094Q375.4874 102.06281 375.70615 101.84406Q375.94052 101.62531 376.25302 101.62531ZM379.00302 98.37531Q379.00302 96.78156 379.4874 95.64094Q379.97177 94.50031 380.75302 93.93781Q381.37802 93.48469 382.03427 93.48469Q383.09677 93.48469 383.94052 94.57844Q385.00302 95.92219 385.00302 98.23469Q385.00302 99.84406 384.53427 100.96906Q384.08115 102.09406 383.34677 102.60969Q382.62802 103.12531 381.95615 103.12531Q380.64365 103.12531 379.75302 101.54719Q379.00302 100.23469 379.00302 98.37531ZM380.34677 98.54719Q380.34677 100.45344 380.81552 101.67219Q381.20615 102.68781 381.9874 102.68781Q382.34677 102.68781 382.7374 102.35969Q383.14365 102.01594 383.34677 101.25031Q383.65927 100.06281 383.65927 97.92219Q383.65927 96.34406 383.33115 95.28156Q383.09677 94.50031 382.70615 94.17219Q382.4249 93.93781 382.01865 93.93781Q381.56552 93.93781 381.19052 94.35969Q380.70615 94.92219 380.51865 96.14094Q380.34677 97.35969 380.34677 98.54719ZM395.01865 93.46906L388.26865 103.34406L387.65927 103.34406L394.40927 93.46906L395.01865 93.46906ZM387.9874 93.46906Q388.90927 93.46906 389.4249 94.23469Q389.94052 95.00031 389.94052 96.00031Q389.94052 97.18781 389.3624 97.84406Q388.78427 98.48469 387.97177 98.48469Q387.44052 98.48469 386.9874 98.18781Q386.53427 97.89094 386.26865 97.31281Q386.00302 96.71906 386.00302 96.00031Q386.00302 95.28156 386.26865 94.67219Q386.5499 94.06281 387.01865 93.76594Q387.4874 93.46906 387.9874 93.46906ZM387.97177 93.85969Q387.62802 93.85969 387.34677 94.26594Q387.08115 94.67219 387.08115 95.98469Q387.08115 96.93781 387.2374 97.43781Q387.34677 97.81281 387.59677 98.01594Q387.7374 98.14094 387.95615 98.14094Q388.28427 98.14094 388.51865 97.78156Q388.84677 97.26594 388.84677 96.03156Q388.84677 94.73469 388.51865 94.20344Q388.2999 93.85969 387.97177 93.85969ZM394.70615 98.35969Q395.19052 98.35969 395.6749 98.67219Q396.15927 98.96906 396.40927 99.56281Q396.6749 100.14094 396.6749 100.84406Q396.6749 102.06281 396.09677 102.70344Q395.51865 103.34406 394.72177 103.34406Q394.22177 103.34406 393.75302 103.03156Q393.28427 102.71906 393.01865 102.15656Q392.75302 101.57844 392.75302 100.84406Q392.75302 100.12531 393.01865 99.53156Q393.28427 98.93781 393.75302 98.65656Q394.22177 98.35969 394.70615 98.35969ZM394.70615 98.71906Q394.37802 98.71906 394.14365 99.07844Q393.83115 99.56281 393.83115 100.89094Q393.83115 102.12531 394.14365 102.60969Q394.37802 102.95344 394.70615 102.95344Q395.01865 102.95344 395.26865 102.57844Q395.59677 102.07844 395.59677 100.85969Q395.59677 99.57844 395.26865 99.06281Q395.0499 98.71906 394.70615 98.71906Z" fill-rule="nonzero"/><path fill="#000000" d="M421.13516 162.17935L423.38516 161.06998L423.61954 161.06998L423.61954 168.8981Q423.61954 169.67935 423.68204 169.88248Q423.74454 170.06998 423.94766 170.17935Q424.1508 170.2731 424.7914 170.28873L424.7914 170.53873L421.30704 170.53873L421.30704 170.28873Q421.9633 170.2731 422.1508 170.17935Q422.3383 170.06998 422.4164 169.91373Q422.49454 169.74185 422.49454 168.8981L422.49454 163.8981Q422.49454 162.88248 422.4164 162.60123Q422.36954 162.38248 422.24454 162.28873Q422.11954 162.17935 421.94766 162.17935Q421.68204 162.17935 421.24454 162.38248L421.13516 162.17935ZM432.9164 168.75748L432.26016 170.53873L426.7914 170.53873L426.7914 170.28873Q429.2133 168.0856 430.19766 166.69498Q431.18204 165.28873 431.18204 164.13248Q431.18204 163.25748 430.63516 162.69498Q430.1039 162.11685 429.3383 162.11685Q428.6664 162.11685 428.11954 162.5231Q427.57266 162.92935 427.32266 163.69498L427.05704 163.69498Q427.2289 162.42935 427.93204 161.75748Q428.6508 161.06998 429.7133 161.06998Q430.8383 161.06998 431.5883 161.80435Q432.3539 162.5231 432.3539 163.50748Q432.3539 164.2106 432.0258 164.91373Q431.51016 166.0231 430.38516 167.25748Q428.68204 169.11685 428.24454 169.50748L430.6664 169.50748Q431.4164 169.50748 431.7133 169.4606Q432.01016 169.3981 432.24454 169.22623Q432.4789 169.05435 432.6664 168.75748L432.9164 168.75748ZM435.24454 169.2106Q435.57266 169.2106 435.7914 169.44498Q436.01016 169.66373 436.01016 169.97623Q436.01016 170.28873 435.7758 170.50748Q435.55704 170.72623 435.24454 170.72623Q434.93204 170.72623 434.69766 170.50748Q434.4789 170.28873 434.4789 169.97623Q434.4789 169.6481 434.69766 169.42935Q434.93204 169.2106 435.24454 169.2106ZM437.99454 165.9606Q437.99454 164.36685 438.4789 163.22623Q438.9633 162.0856 439.74454 161.5231Q440.36954 161.06998 441.0258 161.06998Q442.0883 161.06998 442.93204 162.16373Q443.99454 163.50748 443.99454 165.81998Q443.99454 167.42935 443.5258 168.55435Q443.07266 169.67935 442.3383 170.19498Q441.61954 170.7106 440.94766 170.7106Q439.63516 170.7106 438.74454 169.13248Q437.99454 167.81998 437.99454 165.9606ZM439.3383 166.13248Q439.3383 168.03873 439.80704 169.25748Q440.19766 170.2731 440.9789 170.2731Q441.3383 170.2731 441.7289 169.94498Q442.13516 169.60123 442.3383 168.8356Q442.6508 167.6481 442.6508 165.50748Q442.6508 163.92935 442.32266 162.86685Q442.0883 162.0856 441.69766 161.75748Q441.4164 161.5231 441.01016 161.5231Q440.55704 161.5231 440.18204 161.94498Q439.69766 162.50748 439.51016 163.72623Q439.3383 164.94498 439.3383 166.13248ZM454.01016 161.05435L447.26016 170.92935L446.6508 170.92935L453.4008 161.05435L454.01016 161.05435ZM446.9789 161.05435Q447.9008 161.05435 448.4164 161.81998Q448.93204 162.5856 448.93204 163.5856Q448.93204 164.7731 448.3539 165.42935Q447.7758 166.06998 446.9633 166.06998Q446.43204 166.06998 445.9789 165.7731Q445.5258 165.47623 445.26016 164.8981Q444.99454 164.30435 444.99454 163.5856Q444.99454 162.86685 445.26016 162.25748Q445.5414 161.6481 446.01016 161.35123Q446.4789 161.05435 446.9789 161.05435ZM446.9633 161.44498Q446.61954 161.44498 446.3383 161.85123Q446.07266 162.25748 446.07266 163.56998Q446.07266 164.5231 446.2289 165.0231Q446.3383 165.3981 446.5883 165.60123Q446.7289 165.72623 446.94766 165.72623Q447.2758 165.72623 447.51016 165.36685Q447.8383 164.85123 447.8383 163.61685Q447.8383 162.31998 447.51016 161.78873Q447.2914 161.44498 446.9633 161.44498ZM453.69766 165.94498Q454.18204 165.94498 454.6664 166.25748Q455.1508 166.55435 455.4008 167.1481Q455.6664 167.72623 455.6664 168.42935Q455.6664 169.6481 455.0883 170.28873Q454.51016 170.92935 453.7133 170.92935Q453.2133 170.92935 452.74454 170.61685Q452.2758 170.30435 452.01016 169.74185Q451.74454 169.16373 451.74454 168.42935Q451.74454 167.7106 452.01016 167.11685Q452.2758 166.5231 452.74454 166.24185Q453.2133 165.94498 453.69766 165.94498ZM453.69766 166.30435Q453.36954 166.30435 453.13516 166.66373Q452.82266 167.1481 452.82266 168.47623Q452.82266 169.7106 453.13516 170.19498Q453.36954 170.53873 453.69766 170.53873Q454.01016 170.53873 454.26016 170.16373Q454.5883 169.66373 454.5883 168.44498Q454.5883 167.16373 454.26016 166.6481Q454.0414 166.30435 453.69766 166.30435Z" fill-rule="nonzero"/><path fill="#000000" d="M393.15668 205.9241L398.12543 205.9241L398.12543 206.1741L395.03168 215.37723L394.26605 215.37723L397.0473 207.03348L394.4848 207.03348Q393.71918 207.03348 393.39105 207.22098Q392.81293 207.53348 392.46918 208.18973L392.26605 208.1116L393.15668 205.9241ZM400.50043 213.8616Q400.82855 213.8616 401.0473 214.09598Q401.26605 214.31473 401.26605 214.62723Q401.26605 214.93973 401.03168 215.15848Q400.81293 215.37723 400.50043 215.37723Q400.18793 215.37723 399.95355 215.15848Q399.7348 214.93973 399.7348 214.62723Q399.7348 214.2991 399.95355 214.08035Q400.18793 213.8616 400.50043 213.8616ZM403.25043 210.6116Q403.25043 209.01785 403.7348 207.87723Q404.21918 206.7366 405.00043 206.1741Q405.62543 205.72098 406.28168 205.72098Q407.34418 205.72098 408.18793 206.81473Q409.25043 208.15848 409.25043 210.47098Q409.25043 212.08035 408.78168 213.20535Q408.32855 214.33035 407.59418 214.84598Q406.87543 215.3616 406.20355 215.3616Q404.89105 215.3616 404.00043 213.78348Q403.25043 212.47098 403.25043 210.6116ZM404.59418 210.78348Q404.59418 212.68973 405.06293 213.90848Q405.45355 214.9241 406.2348 214.9241Q406.59418 214.9241 406.9848 214.59598Q407.39105 214.25223 407.59418 213.4866Q407.90668 212.2991 407.90668 210.15848Q407.90668 208.58035 407.57855 207.51785Q407.34418 206.7366 406.95355 206.40848Q406.6723 206.1741 406.26605 206.1741Q405.81293 206.1741 405.43793 206.59598Q404.95355 207.15848 404.76605 208.37723Q404.59418 209.59598 404.59418 210.78348ZM419.26605 205.70535L412.51605 215.58035L411.90668 215.58035L418.65668 205.70535L419.26605 205.70535ZM412.2348 205.70535Q413.15668 205.70535 413.6723 206.47098Q414.18793 207.2366 414.18793 208.2366Q414.18793 209.4241 413.6098 210.08035Q413.03168 210.72098 412.21918 210.72098Q411.68793 210.72098 411.2348 210.4241Q410.78168 210.12723 410.51605 209.5491Q410.25043 208.95535 410.25043 208.2366Q410.25043 207.51785 410.51605 206.90848Q410.7973 206.2991 411.26605 206.00223Q411.7348 205.70535 412.2348 205.70535ZM412.21918 206.09598Q411.87543 206.09598 411.59418 206.50223Q411.32855 206.90848 411.32855 208.22098Q411.32855 209.1741 411.4848 209.6741Q411.59418 210.0491 411.84418 210.25223Q411.9848 210.37723 412.20355 210.37723Q412.53168 210.37723 412.76605 210.01785Q413.09418 209.50223 413.09418 208.26785Q413.09418 206.97098 412.76605 206.43973Q412.5473 206.09598 412.21918 206.09598ZM418.95355 210.59598Q419.43793 210.59598 419.9223 210.90848Q420.40668 211.20535 420.65668 211.7991Q420.9223 212.37723 420.9223 213.08035Q420.9223 214.2991 420.34418 214.93973Q419.76605 215.58035 418.96918 215.58035Q418.46918 215.58035 418.00043 215.26785Q417.53168 214.95535 417.26605 214.39285Q417.00043 213.81473 417.00043 213.08035Q417.00043 212.3616 417.26605 211.76785Q417.53168 211.1741 418.00043 210.89285Q418.46918 210.59598 418.95355 210.59598ZM418.95355 210.95535Q418.62543 210.95535 418.39105 211.31473Q418.07855 211.7991 418.07855 213.12723Q418.07855 214.3616 418.39105 214.84598Q418.62543 215.18973 418.95355 215.18973Q419.26605 215.18973 419.51605 214.81473Q419.84418 214.31473 419.84418 213.09598Q419.84418 211.81473 419.51605 211.2991Q419.2973 210.95535 418.95355 210.95535Z" fill-rule="nonzero"/><path fill="#000000" d="M215.54228 202.82123L215.01103 203.97748L212.21416 203.97748L211.60478 205.22748Q213.41728 205.4931 214.47978 206.57123Q215.38603 207.4931 215.38603 208.75873Q215.38603 209.4931 215.08916 210.1181Q214.79228 210.72748 214.33916 211.16498Q213.90166 211.60248 213.33916 211.8681Q212.5579 212.25873 211.72978 212.25873Q210.88603 212.25873 210.51103 211.97748Q210.13603 211.6806 210.13603 211.33685Q210.13603 211.14935 210.29228 211.00873Q210.44853 210.85248 210.6829 210.85248Q210.8704 210.85248 210.9954 210.91498Q211.13603 210.96185 211.44853 211.19623Q211.96416 211.53998 212.4954 211.53998Q213.29228 211.53998 213.88603 210.94623Q214.4954 210.33685 214.4954 209.46185Q214.4954 208.63373 213.94853 207.89935Q213.41728 207.16498 212.47978 206.77435Q211.72978 206.46185 210.44853 206.41498L212.21416 202.82123L215.54228 202.82123ZM218.10478 203.72748L220.35478 202.6181L220.58916 202.6181L220.58916 210.44623Q220.58916 211.22748 220.65166 211.4306Q220.71416 211.6181 220.91728 211.72748Q221.1204 211.82123 221.76103 211.83685L221.76103 212.08685L218.27666 212.08685L218.27666 211.83685Q218.9329 211.82123 219.1204 211.72748Q219.3079 211.6181 219.38603 211.46185Q219.46416 211.28998 219.46416 210.44623L219.46416 205.44623Q219.46416 204.4306 219.38603 204.14935Q219.33916 203.9306 219.21416 203.83685Q219.08916 203.72748 218.91728 203.72748Q218.65166 203.72748 218.21416 203.9306L218.10478 203.72748ZM225.21416 210.75873Q225.54228 210.75873 225.76103 210.9931Q225.97978 211.21185 225.97978 211.52435Q225.97978 211.83685 225.7454 212.0556Q225.52666 212.27435 225.21416 212.27435Q224.90166 212.27435 224.66728 212.0556Q224.44853 211.83685 224.44853 211.52435Q224.44853 211.19623 224.66728 210.97748Q224.90166 210.75873 225.21416 210.75873ZM227.96416 207.50873Q227.96416 205.91498 228.44853 204.77435Q228.9329 203.63373 229.71416 203.07123Q230.33916 202.6181 230.9954 202.6181Q232.0579 202.6181 232.90166 203.71185Q233.96416 205.0556 233.96416 207.3681Q233.96416 208.97748 233.4954 210.10248Q233.04228 211.22748 232.3079 211.7431Q231.58916 212.25873 230.91728 212.25873Q229.60478 212.25873 228.71416 210.6806Q227.96416 209.3681 227.96416 207.50873ZM229.3079 207.6806Q229.3079 209.58685 229.77666 210.8056Q230.16728 211.82123 230.94853 211.82123Q231.3079 211.82123 231.69853 211.4931Q232.10478 211.14935 232.3079 210.38373Q232.6204 209.19623 232.6204 207.0556Q232.6204 205.47748 232.29228 204.41498Q232.0579 203.63373 231.66728 203.3056Q231.38603 203.07123 230.97978 203.07123Q230.52666 203.07123 230.15166 203.4931Q229.66728 204.0556 229.47978 205.27435Q229.3079 206.4931 229.3079 207.6806ZM243.97978 202.60248L237.22978 212.47748L236.6204 212.47748L243.3704 202.60248L243.97978 202.60248ZM236.94853 202.60248Q237.8704 202.60248 238.38603 203.3681Q238.90166 204.13373 238.90166 205.13373Q238.90166 206.32123 238.32353 206.97748Q237.7454 207.6181 236.9329 207.6181Q236.40166 207.6181 235.94853 207.32123Q235.4954 207.02435 235.22978 206.44623Q234.96416 205.85248 234.96416 205.13373Q234.96416 204.41498 235.22978 203.8056Q235.51103 203.19623 235.97978 202.89935Q236.44853 202.60248 236.94853 202.60248ZM236.9329 202.9931Q236.58916 202.9931 236.3079 203.39935Q236.04228 203.8056 236.04228 205.1181Q236.04228 206.07123 236.19853 206.57123Q236.3079 206.94623 236.5579 207.14935Q236.69853 207.27435 236.91728 207.27435Q237.2454 207.27435 237.47978 206.91498Q237.8079 206.39935 237.8079 205.16498Q237.8079 203.8681 237.47978 203.33685Q237.26103 202.9931 236.9329 202.9931ZM243.66728 207.4931Q244.15166 207.4931 244.63603 207.8056Q245.1204 208.10248 245.3704 208.69623Q245.63603 209.27435 245.63603 209.97748Q245.63603 211.19623 245.0579 211.83685Q244.47978 212.47748 243.6829 212.47748Q243.1829 212.47748 242.71416 212.16498Q242.2454 211.85248 241.97978 211.28998Q241.71416 210.71185 241.71416 209.97748Q241.71416 209.25873 241.97978 208.66498Q242.2454 208.07123 242.71416 207.78998Q243.1829 207.4931 243.66728 207.4931ZM243.66728 207.85248Q243.33916 207.85248 243.10478 208.21185Q242.79228 208.69623 242.79228 210.02435Q242.79228 211.25873 243.10478 211.7431Q243.33916 212.08685 243.66728 212.08685Q243.97978 212.08685 244.22978 211.71185Q244.5579 211.21185 244.5579 209.9931Q244.5579 208.71185 244.22978 208.19623Q244.01103 207.85248 243.66728 207.85248Z" fill-rule="nonzero"/><path fill="#000000" d="M254.64218 80.997406L259.61093 80.997406L259.61093 81.247406L256.51718 90.45053L255.75156 90.45053L258.5328 82.10678L255.9703 82.10678Q255.20468 82.10678 254.87656 82.29428Q254.29843 82.60678 253.95468 83.26303L253.75156 83.184906L254.64218 80.997406ZM261.98593 88.934906Q262.31406 88.934906 262.5328 89.16928Q262.75156 89.38803 262.75156 89.70053Q262.75156 90.01303 262.51718 90.23178Q262.29843 90.45053 261.98593 90.45053Q261.67343 90.45053 261.43906 90.23178Q261.2203 90.01303 261.2203 89.70053Q261.2203 89.372406 261.43906 89.153656Q261.67343 88.934906 261.98593 88.934906ZM264.73593 85.684906Q264.73593 84.091156 265.2203 82.95053Q265.70468 81.809906 266.48593 81.247406Q267.11093 80.79428 267.76718 80.79428Q268.82968 80.79428 269.67343 81.88803Q270.73593 83.23178 270.73593 85.54428Q270.73593 87.153656 270.26718 88.278656Q269.81406 89.403656 269.07968 89.91928Q268.36093 90.434906 267.68906 90.434906Q266.37656 90.434906 265.48593 88.85678Q264.73593 87.54428 264.73593 85.684906ZM266.07968 85.85678Q266.07968 87.76303 266.54843 88.98178Q266.93906 89.997406 267.7203 89.997406Q268.07968 89.997406 268.4703 89.66928Q268.87656 89.32553 269.07968 88.559906Q269.39218 87.372406 269.39218 85.23178Q269.39218 83.653656 269.06406 82.591156Q268.82968 81.809906 268.43906 81.48178Q268.1578 81.247406 267.75156 81.247406Q267.29843 81.247406 266.92343 81.66928Q266.43906 82.23178 266.25156 83.45053Q266.07968 84.66928 266.07968 85.85678ZM280.75156 80.778656L274.00156 90.653656L273.39218 90.653656L280.14218 80.778656L280.75156 80.778656ZM273.7203 80.778656Q274.64218 80.778656 275.1578 81.54428Q275.67343 82.309906 275.67343 83.309906Q275.67343 84.497406 275.0953 85.153656Q274.51718 85.79428 273.70468 85.79428Q273.17343 85.79428 272.7203 85.497406Q272.26718 85.20053 272.00156 84.622406Q271.73593 84.028656 271.73593 83.309906Q271.73593 82.591156 272.00156 81.98178Q272.2828 81.372406 272.75156 81.07553Q273.2203 80.778656 273.7203 80.778656ZM273.70468 81.16928Q273.36093 81.16928 273.07968 81.57553Q272.81406 81.98178 272.81406 83.29428Q272.81406 84.247406 272.9703 84.747406Q273.07968 85.122406 273.32968 85.32553Q273.4703 85.45053 273.68906 85.45053Q274.01718 85.45053 274.25156 85.091156Q274.57968 84.57553 274.57968 83.341156Q274.57968 82.04428 274.25156 81.51303Q274.0328 81.16928 273.70468 81.16928ZM280.43906 85.66928Q280.92343 85.66928 281.4078 85.98178Q281.89218 86.278656 282.14218 86.872406Q282.4078 87.45053 282.4078 88.153656Q282.4078 89.372406 281.82968 90.01303Q281.25156 90.653656 280.45468 90.653656Q279.95468 90.653656 279.48593 90.341156Q279.01718 90.028656 278.75156 89.466156Q278.48593 88.88803 278.48593 88.153656Q278.48593 87.434906 278.75156 86.841156Q279.01718 86.247406 279.48593 85.966156Q279.95468 85.66928 280.43906 85.66928ZM280.43906 86.028656Q280.11093 86.028656 279.87656 86.38803Q279.56406 86.872406 279.56406 88.20053Q279.56406 89.434906 279.87656 89.91928Q280.11093 90.26303 280.43906 90.26303Q280.75156 90.26303 281.00156 89.88803Q281.32968 89.38803 281.32968 88.16928Q281.32968 86.88803 281.00156 86.372406Q280.7828 86.028656 280.43906 86.028656Z" fill-rule="nonzero"/><path fill="#f1c232" d="M104.0 344.0C104.0 347.31372 101.313705 350.0 98.0 350.0C94.686295 350.0 92.0 347.31372 92.0 344.0C92.0 340.68628 94.686295 338.0 98.0 338.0C101.313705 338.0 104.0 340.68628 104.0 344.0Z" fill-rule="nonzero"/><path fill="#1a1a1a" d="M117.890625 345.01562L114.515625 345.01562L114.515625 348.5L112.765625 348.5L112.765625 339.96875L118.3125 339.96875L118.3125 341.39062L114.515625 341.39062L114.515625 343.59375L117.890625 343.59375L117.890625 345.01562ZM123.453125 347.85938Q122.828125 348.625 121.71875 348.625Q120.6875 348.625 120.15625 348.03125Q119.625 347.4375 119.609375 346.3125L119.609375 342.15625L121.296875 342.15625L121.296875 346.25Q121.296875 347.25 122.203125 347.25Q123.0625 347.25 123.390625 346.64062L123.390625 342.15625L125.09375 342.15625L125.09375 348.5L123.5 348.5L123.453125 347.85938ZM128.20312 342.15625L128.26562 342.89062Q128.9375 342.04688 130.07812 342.04688Q131.09375 342.04688 131.57812 342.64062Q132.07812 343.21875 132.09375 344.40625L132.09375 348.5L130.39062 348.5L130.39062 344.4375Q130.39062 343.90625 130.15625 343.67188Q129.92188 343.42188 129.375 343.42188Q128.67188 343.42188 128.3125 344.03125L128.3125 348.5L126.609375 348.5L126.609375 342.15625L128.20312 342.15625ZM133.39062 345.28125Q133.39062 343.79688 134.04688 342.92188Q134.71875 342.04688 135.875 342.04688Q136.79688 342.04688 137.40625 342.73438L137.40625 339.5L139.09375 339.5L139.09375 348.5L137.57812 348.5L137.48438 347.82812Q136.85938 348.625 135.85938 348.625Q134.73438 348.625 134.0625 347.75Q133.39062 346.85938 133.39062 345.28125ZM135.07812 345.40625Q135.07812 346.29688 135.39062 346.78125Q135.70312 347.25 136.29688 347.25Q137.07812 347.25 137.40625 346.57812L137.40625 344.07812Q137.07812 343.42188 136.3125 343.42188Q135.07812 343.42188 135.07812 345.40625ZM146.92188 345.375L145.51562 345.375L145.51562 348.5L143.76562 348.5L143.76562 339.96875L146.9375 339.96875Q148.4375 339.96875 149.25 340.64062Q150.07812 341.3125 150.07812 342.54688Q150.07812 343.42188 149.70312 344.0Q149.32812 344.57812 148.5625 344.9375L150.40625 348.42188L150.40625 348.5L148.51562 348.5L146.92188 345.375ZM145.51562 343.95312L146.9375 343.95312Q147.59375 343.95312 147.95312 343.625Q148.32812 343.28125 148.32812 342.6875Q148.32812 342.07812 147.98438 341.73438Q147.64062 341.39062 146.9375 341.39062L145.51562 341.39062L145.51562 343.95312ZM155.32812 348.5Q155.20312 348.26562 155.15625 347.9375Q154.54688 348.625 153.5625 348.625Q152.625 348.625 152.01562 348.07812Q151.40625 347.53125 151.40625 346.71875Q151.40625 345.70312 152.14062 345.17188Q152.89062 344.625 154.3125 344.625L155.07812 344.625L155.07812 344.26562Q155.07812 343.82812 154.85938 343.5625Q154.64062 343.29688 154.14062 343.29688Q153.71875 343.29688 153.46875 343.5Q153.23438 343.70312 153.23438 344.0625L151.54688 344.0625Q151.54688 343.51562 151.875 343.04688Q152.21875 342.57812 152.84375 342.3125Q153.46875 342.04688 154.23438 342.04688Q155.40625 342.04688 156.09375 342.64062Q156.78125 343.21875 156.78125 344.28125L156.78125 347.03125Q156.79688 347.9375 157.03125 348.40625L157.03125 348.5L155.32812 348.5ZM153.92188 347.32812Q154.29688 347.32812 154.60938 347.15625Q154.9375 346.98438 155.07812 346.70312L155.07812 345.60938L154.45312 345.60938Q153.1875 345.60938 153.09375 346.5L153.09375 346.59375Q153.09375 346.90625 153.3125 347.125Q153.53125 347.32812 153.92188 347.32812ZM159.4375 348.5L157.73438 348.5L157.73438 342.15625L159.4375 342.15625L159.4375 348.5ZM157.64062 340.51562Q157.64062 340.14062 157.89062 339.89062Q158.15625 339.64062 158.59375 339.64062Q159.01562 339.64062 159.26562 339.89062Q159.53125 340.14062 159.53125 340.51562Q159.53125 340.90625 159.26562 341.15625Q159.01562 341.39062 158.57812 341.39062Q158.15625 341.39062 157.89062 341.15625Q157.64062 340.90625 157.64062 340.51562ZM164.07812 346.75Q164.07812 346.4375 163.76562 346.26562Q163.46875 346.07812 162.79688 345.9375Q160.53125 345.46875 160.53125 344.01562Q160.53125 343.17188 161.21875 342.60938Q161.92188 342.04688 163.0625 342.04688Q164.26562 342.04688 164.98438 342.60938Q165.71875 343.17188 165.71875 344.09375L164.01562 344.09375Q164.01562 343.71875 163.78125 343.48438Q163.54688 343.25 163.04688 343.25Q162.625 343.25 162.39062 343.45312Q162.15625 343.64062 162.15625 343.9375Q162.15625 344.21875 162.42188 344.39062Q162.6875 344.5625 163.3125 344.6875Q163.95312 344.8125 164.39062 344.96875Q165.73438 345.46875 165.73438 346.67188Q165.73438 347.54688 164.98438 348.09375Q164.25 348.625 163.0625 348.625Q162.26562 348.625 161.64062 348.34375Q161.03125 348.04688 160.67188 347.5625Q160.32812 347.0625 160.32812 346.48438L161.9375 346.48438Q161.95312 346.9375 162.26562 347.1875Q162.57812 347.42188 163.09375 347.42188Q163.59375 347.42188 163.82812 347.23438Q164.07812 347.04688 164.07812 346.75ZM168.4375 348.5L166.73438 348.5L166.73438 342.15625L168.4375 342.15625L168.4375 348.5ZM166.64062 340.51562Q166.64062 340.14062 166.89062 339.89062Q167.15625 339.64062 167.59375 339.64062Q168.01562 339.64062 168.26562 339.89062Q168.53125 340.14062 168.53125 340.51562Q168.53125 340.90625 168.26562 341.15625Q168.01562 341.39062 167.57812 341.39062Q167.15625 341.39062 166.89062 341.15625Q166.64062 340.90625 166.64062 340.51562ZM171.20312 342.15625L171.26562 342.89062Q171.9375 342.04688 173.07812 342.04688Q174.09375 342.04688 174.57812 342.64062Q175.07812 343.21875 175.09375 344.40625L175.09375 348.5L173.39062 348.5L173.39062 344.4375Q173.39062 343.90625 173.15625 343.67188Q172.92188 343.42188 172.375 343.42188Q171.67188 343.42188 171.3125 344.03125L171.3125 348.5L169.60938 348.5L169.60938 342.15625L171.20312 342.15625ZM176.40625 345.28125Q176.40625 343.82812 177.09375 342.9375Q177.79688 342.04688 178.96875 342.04688Q180.01562 342.04688 180.59375 342.75L180.67188 342.15625L182.20312 342.15625L182.20312 348.28125Q182.20312 349.125 181.8125 349.73438Q181.4375 350.35938 180.75 350.67188Q180.07812 351.0 179.15625 351.0Q178.45312 351.0 177.78125 350.71875Q177.125 350.4375 176.79688 350.0L177.54688 348.96875Q178.17188 349.67188 179.07812 349.67188Q179.75 349.67188 180.125 349.3125Q180.5 348.95312 180.5 348.29688L180.5 347.95312Q179.92188 348.625 178.95312 348.625Q177.8125 348.625 177.10938 347.73438Q176.40625 346.82812 176.40625 345.35938L176.40625 345.28125ZM178.09375 345.40625Q178.09375 346.26562 178.4375 346.76562Q178.79688 347.25 179.39062 347.25Q180.17188 347.25 180.5 346.67188L180.5 344.0Q180.15625 343.42188 179.40625 343.42188Q178.79688 343.42188 178.4375 343.92188Q178.09375 344.42188 178.09375 345.40625Z" fill-rule="nonzero"/><path fill="#c27ba0" d="M211.0 344.0C211.0 347.31372 208.3137 350.0 205.0 350.0C201.6863 350.0 199.0 347.31372 199.0 344.0C199.0 340.68628 201.6863 338.0 205.0 338.0C208.3137 338.0 211.0 340.68628 211.0 344.0Z" fill-rule="nonzero"/><path fill="#1a1a1a" d="M226.1875 341.39062L223.57812 341.39062L223.57812 348.5L221.8125 348.5L221.8125 341.39062L219.23438 341.39062L219.23438 339.96875L226.1875 339.96875L226.1875 341.39062ZM229.5625 348.625Q228.17188 348.625 227.29688 347.76562Q226.42188 346.90625 226.42188 345.48438L226.42188 345.3125Q226.42188 344.35938 226.78125 343.60938Q227.15625 342.85938 227.82812 342.45312Q228.51562 342.04688 229.375 342.04688Q230.6875 342.04688 231.42188 342.875Q232.17188 343.6875 232.17188 345.1875L232.17188 345.875L228.14062 345.875Q228.21875 346.5 228.625 346.875Q229.04688 347.25 229.6875 347.25Q230.65625 347.25 231.20312 346.54688L232.04688 347.46875Q231.65625 348.01562 231.0 348.32812Q230.35938 348.625 229.5625 348.625ZM229.375 343.40625Q228.875 343.40625 228.5625 343.75Q228.25 344.09375 228.15625 344.71875L230.51562 344.71875L230.51562 344.59375Q230.5 344.03125 230.20312 343.71875Q229.92188 343.40625 229.375 343.40625ZM236.32812 348.5Q236.20312 348.26562 236.15625 347.9375Q235.54688 348.625 234.5625 348.625Q233.625 348.625 233.01562 348.07812Q232.40625 347.53125 232.40625 346.71875Q232.40625 345.70312 233.14062 345.17188Q233.89062 344.625 235.3125 344.625L236.07812 344.625L236.07812 344.26562Q236.07812 343.82812 235.85938 343.5625Q235.64062 343.29688 235.14062 343.29688Q234.71875 343.29688 234.46875 343.5Q234.23438 343.70312 234.23438 344.0625L232.54688 344.0625Q232.54688 343.51562 232.875 343.04688Q233.21875 342.57812 233.84375 342.3125Q234.46875 342.04688 235.23438 342.04688Q236.40625 342.04688 237.09375 342.64062Q237.78125 343.21875 237.78125 344.28125L237.78125 347.03125Q237.79688 347.9375 238.03125 348.40625L238.03125 348.5L236.32812 348.5ZM234.92188 347.32812Q235.29688 347.32812 235.60938 347.15625Q235.9375 346.98438 236.07812 346.70312L236.07812 345.60938L235.45312 345.60938Q234.1875 345.60938 234.09375 346.5L234.09375 346.59375Q234.09375 346.90625 234.3125 347.125Q234.53125 347.32812 234.92188 347.32812ZM240.23438 342.15625L240.29688 342.875Q240.96875 342.04688 242.10938 342.04688Q243.34375 342.04688 243.79688 343.01562Q244.46875 342.04688 245.70312 342.04688Q246.73438 342.04688 247.23438 342.65625Q247.73438 343.25 247.73438 344.45312L247.73438 348.5L246.04688 348.5L246.04688 344.45312Q246.04688 343.92188 245.82812 343.67188Q245.625 343.42188 245.07812 343.42188Q244.32812 343.42188 244.03125 344.14062L244.03125 348.5L242.34375 348.5L242.34375 344.46875Q242.34375 343.90625 242.125 343.67188Q241.90625 343.42188 241.39062 343.42188Q240.67188 343.42188 240.34375 344.01562L240.34375 348.5L238.65625 348.5L238.65625 342.15625L240.23438 342.15625Z" fill-rule="nonzero"/><path fill="#b4a7d6" d="M276.0 344.0C276.0 347.31372 273.31372 350.0 270.0 350.0C266.68628 350.0 264.0 347.31372 264.0 344.0C264.0 340.68628 266.68628 338.0 270.0 338.0C273.31372 338.0 276.0 340.68628 276.0 344.0Z" fill-rule="nonzero"/><path fill="#1a1a1a" d="M289.89062 344.79688L286.51562 344.79688L286.51562 347.09375L290.48438 347.09375L290.48438 348.5L284.76562 348.5L284.76562 339.96875L290.46875 339.96875L290.46875 341.39062L286.51562 341.39062L286.51562 343.42188L289.89062 343.42188L289.89062 344.79688ZM294.28125 347.25Q294.75 347.25 295.04688 347.0Q295.34375 346.73438 295.35938 346.3125L296.9375 346.3125Q296.9375 346.95312 296.59375 347.5Q296.25 348.03125 295.64062 348.32812Q295.04688 348.625 294.3125 348.625Q292.95312 348.625 292.17188 347.76562Q291.39062 346.89062 291.39062 345.35938L291.39062 345.25Q291.39062 343.78125 292.17188 342.92188Q292.95312 342.04688 294.3125 342.04688Q295.5 342.04688 296.21875 342.71875Q296.9375 343.39062 296.9375 344.51562L295.35938 344.51562Q295.34375 344.03125 295.04688 343.71875Q294.75 343.40625 294.28125 343.40625Q293.6875 343.40625 293.375 343.84375Q293.07812 344.28125 293.07812 345.23438L293.07812 345.42188Q293.07812 346.39062 293.375 346.82812Q293.67188 347.25 294.28125 347.25ZM297.39062 345.26562Q297.39062 344.32812 297.75 343.59375Q298.10938 342.84375 298.79688 342.45312Q299.48438 342.04688 300.375 342.04688Q301.67188 342.04688 302.46875 342.82812Q303.28125 343.60938 303.375 344.95312L303.39062 345.39062Q303.39062 346.85938 302.57812 347.75Q301.76562 348.625 300.39062 348.625Q299.01562 348.625 298.20312 347.75Q297.39062 346.85938 297.39062 345.34375L297.39062 345.26562ZM299.07812 345.39062Q299.07812 346.29688 299.42188 346.78125Q299.76562 347.25 300.39062 347.25Q301.01562 347.25 301.35938 346.78125Q301.70312 346.3125 301.70312 345.26562Q301.70312 344.39062 301.35938 343.90625Q301.01562 343.40625 300.375 343.40625Q299.76562 343.40625 299.42188 343.89062Q299.07812 344.375 299.07812 345.39062ZM308.07812 346.75Q308.07812 346.4375 307.76562 346.26562Q307.46875 346.07812 306.79688 345.9375Q304.53125 345.46875 304.53125 344.01562Q304.53125 343.17188 305.21875 342.60938Q305.92188 342.04688 307.0625 342.04688Q308.26562 342.04688 308.98438 342.60938Q309.71875 343.17188 309.71875 344.09375L308.01562 344.09375Q308.01562 343.71875 307.78125 343.48438Q307.54688 343.25 307.04688 343.25Q306.625 343.25 306.39062 343.45312Q306.15625 343.64062 306.15625 343.9375Q306.15625 344.21875 306.42188 344.39062Q306.6875 344.5625 307.3125 344.6875Q307.95312 344.8125 308.39062 344.96875Q309.73438 345.46875 309.73438 346.67188Q309.73438 347.54688 308.98438 348.09375Q308.25 348.625 307.0625 348.625Q306.26562 348.625 305.64062 348.34375Q305.03125 348.04688 304.67188 347.5625Q304.32812 347.0625 304.32812 346.48438L305.9375 346.48438Q305.95312 346.9375 306.26562 347.1875Q306.57812 347.42188 307.09375 347.42188Q307.59375 347.42188 307.82812 347.23438Q308.07812 347.04688 308.07812 346.75ZM313.01562 346.10938L314.1875 342.15625L316.0 342.15625L313.45312 349.48438L313.3125 349.8125Q312.75 351.0625 311.4375 351.0625Q311.07812 351.0625 310.6875 350.95312L310.6875 349.67188L310.95312 349.67188Q311.4375 349.67188 311.67188 349.51562Q311.90625 349.375 312.04688 349.04688L312.23438 348.51562L310.01562 342.15625L311.84375 342.15625L313.01562 346.10938ZM320.07812 346.75Q320.07812 346.4375 319.76562 346.26562Q319.46875 346.07812 318.79688 345.9375Q316.53125 345.46875 316.53125 344.01562Q316.53125 343.17188 317.21875 342.60938Q317.92188 342.04688 319.0625 342.04688Q320.26562 342.04688 320.98438 342.60938Q321.71875 343.17188 321.71875 344.09375L320.01562 344.09375Q320.01562 343.71875 319.78125 343.48438Q319.54688 343.25 319.04688 343.25Q318.625 343.25 318.39062 343.45312Q318.15625 343.64062 318.15625 343.9375Q318.15625 344.21875 318.42188 344.39062Q318.6875 344.5625 319.3125 344.6875Q319.95312 344.8125 320.39062 344.96875Q321.73438 345.46875 321.73438 346.67188Q321.73438 347.54688 320.98438 348.09375Q320.25 348.625 319.0625 348.625Q318.26562 348.625 317.64062 348.34375Q317.03125 348.04688 316.67188 347.5625Q316.32812 347.0625 316.32812 346.48438L317.9375 346.48438Q317.95312 346.9375 318.26562 347.1875Q318.57812 347.42188 319.09375 347.42188Q319.59375 347.42188 319.82812 347.23438Q320.07812 347.04688 320.07812 346.75ZM324.67188 340.59375L324.67188 342.15625L325.76562 342.15625L325.76562 343.40625L324.67188 343.40625L324.67188 346.5625Q324.67188 346.92188 324.8125 347.07812Q324.95312 347.21875 325.32812 347.21875Q325.60938 347.21875 325.82812 347.1875L325.82812 348.46875Q325.32812 348.625 324.79688 348.625Q323.01562 348.625 322.98438 346.8125L322.98438 343.40625L322.0625 343.40625L322.0625 342.15625L322.98438 342.15625L322.98438 340.59375L324.67188 340.59375ZM329.5625 348.625Q328.17188 348.625 327.29688 347.76562Q326.42188 346.90625 326.42188 345.48438L326.42188 345.3125Q326.42188 344.35938 326.78125 343.60938Q327.15625 342.85938 327.82812 342.45312Q328.51562 342.04688 329.375 342.04688Q330.6875 342.04688 331.42188 342.875Q332.17188 343.6875 332.17188 345.1875L332.17188 345.875L328.14062 345.875Q328.21875 346.5 328.625 346.875Q329.04688 347.25 329.6875 347.25Q330.65625 347.25 331.20312 346.54688L332.04688 347.46875Q331.65625 348.01562 331.0 348.32812Q330.35938 348.625 329.5625 348.625ZM329.375 343.40625Q328.875 343.40625 328.5625 343.75Q328.25 344.09375 328.15625 344.71875L330.51562 344.71875L330.51562 344.59375Q330.5 344.03125 330.20312 343.71875Q329.92188 343.40625 329.375 343.40625ZM334.23438 342.15625L334.29688 342.875Q334.96875 342.04688 336.10938 342.04688Q337.34375 342.04688 337.79688 343.01562Q338.46875 342.04688 339.70312 342.04688Q340.73438 342.04688 341.23438 342.65625Q341.73438 343.25 341.73438 344.45312L341.73438 348.5L340.04688 348.5L340.04688 344.45312Q340.04688 343.92188 339.82812 343.67188Q339.625 343.42188 339.07812 343.42188Q338.32812 343.42188 338.03125 344.14062L338.03125 348.5L336.34375 348.5L336.34375 344.46875Q336.34375 343.90625 336.125 343.67188Q335.90625 343.42188 335.39062 343.42188Q334.67188 343.42188 334.34375 344.01562L334.34375 348.5L332.65625 348.5L332.65625 342.15625L334.23438 342.15625ZM347.51562 345.5L347.51562 348.5L345.76562 348.5L345.76562 339.96875L349.09375 339.96875Q350.04688 339.96875 350.78125 340.32812Q351.51562 340.67188 351.90625 341.32812Q352.29688 341.96875 352.29688 342.79688Q352.29688 344.04688 351.4375 344.78125Q350.57812 345.5 349.0625 345.5L347.51562 345.5ZM347.51562 344.0625L349.09375 344.0625Q349.78125 344.0625 350.14062 343.73438Q350.51562 343.40625 350.51562 342.79688Q350.51562 342.17188 350.14062 341.79688Q349.78125 341.40625 349.125 341.39062L347.51562 341.39062L347.51562 344.0625ZM357.32812 348.5Q357.20312 348.26562 357.15625 347.9375Q356.54688 348.625 355.5625 348.625Q354.625 348.625 354.01562 348.07812Q353.40625 347.53125 353.40625 346.71875Q353.40625 345.70312 354.14062 345.17188Q354.89062 344.625 356.3125 344.625L357.07812 344.625L357.07812 344.26562Q357.07812 343.82812 356.85938 343.5625Q356.64062 343.29688 356.14062 343.29688Q355.71875 343.29688 355.46875 343.5Q355.23438 343.70312 355.23438 344.0625L353.54688 344.0625Q353.54688 343.51562 353.875 343.04688Q354.21875 342.57812 354.84375 342.3125Q355.46875 342.04688 356.23438 342.04688Q357.40625 342.04688 358.09375 342.64062Q358.78125 343.21875 358.78125 344.28125L358.78125 347.03125Q358.79688 347.9375 359.03125 348.40625L359.03125 348.5L357.32812 348.5ZM355.92188 347.32812Q356.29688 347.32812 356.60938 347.15625Q356.9375 346.98438 357.07812 346.70312L357.07812 345.60938L356.45312 345.60938Q355.1875 345.60938 355.09375 346.5L355.09375 346.59375Q355.09375 346.90625 355.3125 347.125Q355.53125 347.32812 355.92188 347.32812ZM363.21875 343.75Q362.875 343.70312 362.60938 343.70312Q361.64062 343.70312 361.34375 344.34375L361.34375 348.5L359.65625 348.5L359.65625 342.15625L361.25 342.15625L361.29688 342.92188Q361.8125 342.04688 362.70312 342.04688Q362.98438 342.04688 363.23438 342.125L363.21875 343.75ZM365.67188 340.59375L365.67188 342.15625L366.76562 342.15625L366.76562 343.40625L365.67188 343.40625L365.67188 346.5625Q365.67188 346.92188 365.8125 347.07812Q365.95312 347.21875 366.32812 347.21875Q366.60938 347.21875 366.82812 347.1875L366.82812 348.46875Q366.32812 348.625 365.79688 348.625Q364.01562 348.625 363.98438 346.8125L363.98438 343.40625L363.0625 343.40625L363.0625 342.15625L363.98438 342.15625L363.98438 340.59375L365.67188 340.59375ZM369.20312 342.15625L369.26562 342.89062Q369.9375 342.04688 371.07812 342.04688Q372.09375 342.04688 372.57812 342.64062Q373.07812 343.21875 373.09375 344.40625L373.09375 348.5L371.39062 348.5L371.39062 344.4375Q371.39062 343.90625 371.15625 343.67188Q370.92188 343.42188 370.375 343.42188Q369.67188 343.42188 369.3125 344.03125L369.3125 348.5L367.60938 348.5L367.60938 342.15625L369.20312 342.15625ZM377.5625 348.625Q376.17188 348.625 375.29688 347.76562Q374.42188 346.90625 374.42188 345.48438L374.42188 345.3125Q374.42188 344.35938 374.78125 343.60938Q375.15625 342.85938 375.82812 342.45312Q376.51562 342.04688 377.375 342.04688Q378.6875 342.04688 379.42188 342.875Q380.17188 343.6875 380.17188 345.1875L380.17188 345.875L376.14062 345.875Q376.21875 346.5 376.625 346.875Q377.04688 347.25 377.6875 347.25Q378.65625 347.25 379.20312 346.54688L380.04688 347.46875Q379.65625 348.01562 379.0 348.32812Q378.35938 348.625 377.5625 348.625ZM377.375 343.40625Q376.875 343.40625 376.5625 343.75Q376.25 344.09375 376.15625 344.71875L378.51562 344.71875L378.51562 344.59375Q378.5 344.03125 378.20312 343.71875Q377.92188 343.40625 377.375 343.40625ZM384.21875 343.75Q383.875 343.70312 383.60938 343.70312Q382.64062 343.70312 382.34375 344.34375L382.34375 348.5L380.65625 348.5L380.65625 342.15625L382.25 342.15625L382.29688 342.92188Q382.8125 342.04688 383.70312 342.04688Q383.98438 342.04688 384.23438 342.125L384.21875 343.75ZM388.07812 346.75Q388.07812 346.4375 387.76562 346.26562Q387.46875 346.07812 386.79688 345.9375Q384.53125 345.46875 384.53125 344.01562Q384.53125 343.17188 385.21875 342.60938Q385.92188 342.04688 387.0625 342.04688Q388.26562 342.04688 388.98438 342.60938Q389.71875 343.17188 389.71875 344.09375L388.01562 344.09375Q388.01562 343.71875 387.78125 343.48438Q387.54688 343.25 387.04688 343.25Q386.625 343.25 386.39062 343.45312Q386.15625 343.64062 386.15625 343.9375Q386.15625 344.21875 386.42188 344.39062Q386.6875 344.5625 387.3125 344.6875Q387.95312 344.8125 388.39062 344.96875Q389.73438 345.46875 389.73438 346.67188Q389.73438 347.54688 388.98438 348.09375Q388.25 348.625 387.0625 348.625Q386.26562 348.625 385.64062 348.34375Q385.03125 348.04688 384.67188 347.5625Q384.32812 347.0625 384.32812 346.48438L385.9375 346.48438Q385.95312 346.9375 386.26562 347.1875Q386.57812 347.42188 387.09375 347.42188Q387.59375 347.42188 387.82812 347.23438Q388.07812 347.04688 388.07812 346.75Z" fill-rule="nonzero"/><path fill="#6fa8dc" d="M418.0 344.0C418.0 347.31372 415.31372 350.0 412.0 350.0C408.68628 350.0 406.0 347.31372 406.0 344.0C406.0 340.68628 408.68628 338.0 412.0 338.0C415.31372 338.0 418.0 340.68628 418.0 344.0Z" fill-rule="nonzero"/><path fill="#1a1a1a" d="M433.45312 345.65625Q433.35938 347.03125 432.4375 347.82812Q431.53125 348.625 430.03125 348.625Q428.39062 348.625 427.4375 347.51562Q426.5 346.40625 426.5 344.48438L426.5 343.95312Q426.5 342.73438 426.9375 341.79688Q427.375 340.85938 428.17188 340.35938Q428.98438 339.84375 430.04688 339.84375Q431.53125 339.84375 432.42188 340.64062Q433.32812 341.4375 433.46875 342.85938L431.71875 342.85938Q431.65625 342.03125 431.25 341.67188Q430.85938 341.29688 430.04688 341.29688Q429.17188 341.29688 428.73438 341.92188Q428.29688 342.54688 428.28125 343.875L428.28125 344.51562Q428.28125 345.90625 428.70312 346.54688Q429.125 347.1875 430.03125 347.1875Q430.84375 347.1875 431.23438 346.8125Q431.64062 346.4375 431.70312 345.65625L433.45312 345.65625ZM434.39062 345.26562Q434.39062 344.32812 434.75 343.59375Q435.10938 342.84375 435.79688 342.45312Q436.48438 342.04688 437.375 342.04688Q438.67188 342.04688 439.46875 342.82812Q440.28125 343.60938 440.375 344.95312L440.39062 345.39062Q440.39062 346.85938 439.57812 347.75Q438.76562 348.625 437.39062 348.625Q436.01562 348.625 435.20312 347.75Q434.39062 346.85938 434.39062 345.34375L434.39062 345.26562ZM436.07812 345.39062Q436.07812 346.29688 436.42188 346.78125Q436.76562 347.25 437.39062 347.25Q438.01562 347.25 438.35938 346.78125Q438.70312 346.3125 438.70312 345.26562Q438.70312 344.39062 438.35938 343.90625Q438.01562 343.40625 437.375 343.40625Q436.76562 343.40625 436.42188 343.89062Q436.07812 344.375 436.07812 345.39062ZM443.23438 342.15625L443.29688 342.875Q443.96875 342.04688 445.10938 342.04688Q446.34375 342.04688 446.79688 343.01562Q447.46875 342.04688 448.70312 342.04688Q449.73438 342.04688 450.23438 342.65625Q450.73438 343.25 450.73438 344.45312L450.73438 348.5L449.04688 348.5L449.04688 344.45312Q449.04688 343.92188 448.82812 343.67188Q448.625 343.42188 448.07812 343.42188Q447.32812 343.42188 447.03125 344.14062L447.03125 348.5L445.34375 348.5L445.34375 344.46875Q445.34375 343.90625 445.125 343.67188Q444.90625 343.42188 444.39062 343.42188Q443.67188 343.42188 443.34375 344.01562L443.34375 348.5L441.65625 348.5L441.65625 342.15625L443.23438 342.15625ZM453.23438 342.15625L453.29688 342.875Q453.96875 342.04688 455.10938 342.04688Q456.34375 342.04688 456.79688 343.01562Q457.46875 342.04688 458.70312 342.04688Q459.73438 342.04688 460.23438 342.65625Q460.73438 343.25 460.73438 344.45312L460.73438 348.5L459.04688 348.5L459.04688 344.45312Q459.04688 343.92188 458.82812 343.67188Q458.625 343.42188 458.07812 343.42188Q457.32812 343.42188 457.03125 344.14062L457.03125 348.5L455.34375 348.5L455.34375 344.46875Q455.34375 343.90625 455.125 343.67188Q454.90625 343.42188 454.39062 343.42188Q453.67188 343.42188 453.34375 344.01562L453.34375 348.5L451.65625 348.5L451.65625 342.15625L453.23438 342.15625ZM465.45312 347.85938Q464.82812 348.625 463.71875 348.625Q462.6875 348.625 462.15625 348.03125Q461.625 347.4375 461.60938 346.3125L461.60938 342.15625L463.29688 342.15625L463.29688 346.25Q463.29688 347.25 464.20312 347.25Q465.0625 347.25 465.39062 346.64062L465.39062 342.15625L467.09375 342.15625L467.09375 348.5L465.5 348.5L465.45312 347.85938ZM470.20312 342.15625L470.26562 342.89062Q470.9375 342.04688 472.07812 342.04688Q473.09375 342.04688 473.57812 342.64062Q474.07812 343.21875 474.09375 344.40625L474.09375 348.5L472.39062 348.5L472.39062 344.4375Q472.39062 343.90625 472.15625 343.67188Q471.92188 343.42188 471.375 343.42188Q470.67188 343.42188 470.3125 344.03125L470.3125 348.5L468.60938 348.5L468.60938 342.15625L470.20312 342.15625ZM477.4375 348.5L475.73438 348.5L475.73438 342.15625L477.4375 342.15625L477.4375 348.5ZM475.64062 340.51562Q475.64062 340.14062 475.89062 339.89062Q476.15625 339.64062 476.59375 339.64062Q477.01562 339.64062 477.26562 339.89062Q477.53125 340.14062 477.53125 340.51562Q477.53125 340.90625 477.26562 341.15625Q477.01562 341.39062 476.57812 341.39062Q476.15625 341.39062 475.89062 341.15625Q475.64062 340.90625 475.64062 340.51562ZM480.67188 340.59375L480.67188 342.15625L481.76562 342.15625L481.76562 343.40625L480.67188 343.40625L480.67188 346.5625Q480.67188 346.92188 480.8125 347.07812Q480.95312 347.21875 481.32812 347.21875Q481.60938 347.21875 481.82812 347.1875L481.82812 348.46875Q481.32812 348.625 480.79688 348.625Q479.01562 348.625 478.98438 346.8125L478.98438 343.40625L478.0625 343.40625L478.0625 342.15625L478.98438 342.15625L478.98438 340.59375L480.67188 340.59375ZM485.01562 346.10938L486.1875 342.15625L488.0 342.15625L485.45312 349.48438L485.3125 349.8125Q484.75 351.0625 483.4375 351.0625Q483.07812 351.0625 482.6875 350.95312L482.6875 349.67188L482.95312 349.67188Q483.4375 349.67188 483.67188 349.51562Q483.90625 349.375 484.04688 349.04688L484.23438 348.51562L482.01562 342.15625L483.84375 342.15625L485.01562 346.10938ZM494.92188 345.375L493.51562 345.375L493.51562 348.5L491.76562 348.5L491.76562 339.96875L494.9375 339.96875Q496.4375 339.96875 497.25 340.64062Q498.07812 341.3125 498.07812 342.54688Q498.07812 343.42188 497.70312 344.0Q497.32812 344.57812 496.5625 344.9375L498.40625 348.42188L498.40625 348.5L496.51562 348.5L494.92188 345.375ZM493.51562 343.95312L494.9375 343.95312Q495.59375 343.95312 495.95312 343.625Q496.32812 343.28125 496.32812 342.6875Q496.32812 342.07812 495.98438 341.73438Q495.64062 341.39062 494.9375 341.39062L493.51562 341.39062L493.51562 343.95312ZM502.5625 348.625Q501.17188 348.625 500.29688 347.76562Q499.42188 346.90625 499.42188 345.48438L499.42188 345.3125Q499.42188 344.35938 499.78125 343.60938Q500.15625 342.85938 500.82812 342.45312Q501.51562 342.04688 502.375 342.04688Q503.6875 342.04688 504.42188 342.875Q505.17188 343.6875 505.17188 345.1875L505.17188 345.875L501.14062 345.875Q501.21875 346.5 501.625 346.875Q502.04688 347.25 502.6875 347.25Q503.65625 347.25 504.20312 346.54688L505.04688 347.46875Q504.65625 348.01562 504.0 348.32812Q503.35938 348.625 502.5625 348.625ZM502.375 343.40625Q501.875 343.40625 501.5625 343.75Q501.25 344.09375 501.15625 344.71875L503.51562 344.71875L503.51562 344.59375Q503.5 344.03125 503.20312 343.71875Q502.92188 343.40625 502.375 343.40625ZM511.17188 346.20312L512.0 342.15625L513.625 342.15625L512.0156 348.5L510.59375 348.5L509.39062 344.51562L508.1875 348.5L506.78125 348.5L505.17188 342.15625L506.79688 342.15625L507.625 346.1875L508.78125 342.15625L510.01562 342.15625L511.17188 346.20312ZM518.3281 348.5Q518.2031 348.26562 518.15625 347.9375Q517.5469 348.625 516.5625 348.625Q515.625 348.625 515.0156 348.07812Q514.40625 347.53125 514.40625 346.71875Q514.40625 345.70312 515.1406 345.17188Q515.8906 344.625 517.3125 344.625L518.0781 344.625L518.0781 344.26562Q518.0781 343.82812 517.8594 343.5625Q517.6406 343.29688 517.1406 343.29688Q516.71875 343.29688 516.46875 343.5Q516.2344 343.70312 516.2344 344.0625L514.5469 344.0625Q514.5469 343.51562 514.875 343.04688Q515.21875 342.57812 515.84375 342.3125Q516.46875 342.04688 517.2344 342.04688Q518.40625 342.04688 519.09375 342.64062Q519.78125 343.21875 519.78125 344.28125L519.78125 347.03125Q519.7969 347.9375 520.03125 348.40625L520.03125 348.5L518.3281 348.5ZM516.9219 347.32812Q517.2969 347.32812 517.6094 347.15625Q517.9375 346.98438 518.0781 346.70312L518.0781 345.60938L517.4531 345.60938Q516.1875 345.60938 516.09375 346.5L516.09375 346.59375Q516.09375 346.90625 516.3125 347.125Q516.53125 347.32812 516.9219 347.32812ZM524.21875 343.75Q523.875 343.70312 523.6094 343.70312Q522.6406 343.70312 522.34375 344.34375L522.34375 348.5L520.65625 348.5L520.65625 342.15625L522.25 342.15625L522.2969 342.92188Q522.8125 342.04688 523.7031 342.04688Q523.9844 342.04688 524.2344 342.125L524.21875 343.75ZM524.3906 345.28125Q524.3906 343.79688 525.0469 342.92188Q525.71875 342.04688 526.875 342.04688Q527.7969 342.04688 528.40625 342.73438L528.40625 339.5L530.09375 339.5L530.09375 348.5L528.5781 348.5L528.4844 347.82812Q527.8594 348.625 526.8594 348.625Q525.7344 348.625 525.0625 347.75Q524.3906 346.85938 524.3906 345.28125ZM526.0781 345.40625Q526.0781 346.29688 526.3906 346.78125Q526.7031 347.25 527.2969 347.25Q528.0781 347.25 528.40625 346.57812L528.40625 344.07812Q528.0781 343.42188 527.3125 343.42188Q526.0781 343.42188 526.0781 345.40625ZM535.0781 346.75Q535.0781 346.4375 534.7656 346.26562Q534.46875 346.07812 533.7969 345.9375Q531.53125 345.46875 531.53125 344.01562Q531.53125 343.17188 532.21875 342.60938Q532.9219 342.04688 534.0625 342.04688Q535.2656 342.04688 535.9844 342.60938Q536.71875 343.17188 536.71875 344.09375L535.0156 344.09375Q535.0156 343.71875 534.78125 343.48438Q534.5469 343.25 534.0469 343.25Q533.625 343.25 533.3906 343.45312Q533.15625 343.64062 533.15625 343.9375Q533.15625 344.21875 533.4219 344.39062Q533.6875 344.5625 534.3125 344.6875Q534.9531 344.8125 535.3906 344.96875Q536.7344 345.46875 536.7344 346.67188Q536.7344 347.54688 535.9844 348.09375Q535.25 348.625 534.0625 348.625Q533.2656 348.625 532.6406 348.34375Q532.03125 348.04688 531.6719 347.5625Q531.3281 347.0625 531.3281 346.48438L532.9375 346.48438Q532.9531 346.9375 533.2656 347.1875Q533.5781 347.42188 534.09375 347.42188Q534.59375 347.42188 534.8281 347.23438Q535.0781 347.04688 535.0781 346.75Z" fill-rule="nonzero"/><path fill="#93c47d" d="M203.0 363.0C203.0 366.31372 200.3137 369.0 197.0 369.0C193.6863 369.0 191.0 366.31372 191.0 363.0C191.0 359.68628 193.6863 357.0 197.0 357.0C200.3137 357.0 203.0 359.68628 203.0 363.0Z" fill-rule="nonzero"/><path fill="#1a1a1a" d="M218.45312 364.65625Q218.35938 366.03125 217.4375 366.82812Q216.53125 367.625 215.03125 367.625Q213.39062 367.625 212.4375 366.51562Q211.5 365.40625 211.5 363.48438L211.5 362.95312Q211.5 361.73438 211.9375 360.79688Q212.375 359.85938 213.17188 359.35938Q213.98438 358.84375 215.04688 358.84375Q216.53125 358.84375 217.42188 359.64062Q218.32812 360.4375 218.46875 361.85938L216.71875 361.85938Q216.65625 361.03125 216.25 360.67188Q215.85938 360.29688 215.04688 360.29688Q214.17188 360.29688 213.73438 360.92188Q213.29688 361.54688 213.28125 362.875L213.28125 363.51562Q213.28125 364.90625 213.70312 365.54688Q214.125 366.1875 215.03125 366.1875Q215.84375 366.1875 216.23438 365.8125Q216.64062 365.4375 216.70312 364.65625L218.45312 364.65625ZM219.39062 364.26562Q219.39062 363.32812 219.75 362.59375Q220.10938 361.84375 220.79688 361.45312Q221.48438 361.04688 222.375 361.04688Q223.67188 361.04688 224.46875 361.82812Q225.28125 362.60938 225.375 363.95312L225.39062 364.39062Q225.39062 365.85938 224.57812 366.75Q223.76562 367.625 222.39062 367.625Q221.01562 367.625 220.20312 366.75Q219.39062 365.85938 219.39062 364.34375L219.39062 364.26562ZM221.07812 364.39062Q221.07812 365.29688 221.42188 365.78125Q221.76562 366.25 222.39062 366.25Q223.01562 366.25 223.35938 365.78125Q223.70312 365.3125 223.70312 364.26562Q223.70312 363.39062 223.35938 362.90625Q223.01562 362.40625 222.375 362.40625Q221.76562 362.40625 221.42188 362.89062Q221.07812 363.375 221.07812 364.39062ZM228.23438 361.15625L228.29688 361.875Q228.96875 361.04688 230.10938 361.04688Q231.34375 361.04688 231.79688 362.01562Q232.46875 361.04688 233.70312 361.04688Q234.73438 361.04688 235.23438 361.65625Q235.73438 362.25 235.73438 363.45312L235.73438 367.5L234.04688 367.5L234.04688 363.45312Q234.04688 362.92188 233.82812 362.67188Q233.625 362.42188 233.07812 362.42188Q232.32812 362.42188 232.03125 363.14062L232.03125 367.5L230.34375 367.5L230.34375 363.46875Q230.34375 362.90625 230.125 362.67188Q229.90625 362.42188 229.39062 362.42188Q228.67188 362.42188 228.34375 363.01562L228.34375 367.5L226.65625 367.5L226.65625 361.15625L228.23438 361.15625ZM238.23438 361.15625L238.29688 361.875Q238.96875 361.04688 240.10938 361.04688Q241.34375 361.04688 241.79688 362.01562Q242.46875 361.04688 243.70312 361.04688Q244.73438 361.04688 245.23438 361.65625Q245.73438 362.25 245.73438 363.45312L245.73438 367.5L244.04688 367.5L244.04688 363.45312Q244.04688 362.92188 243.82812 362.67188Q243.625 362.42188 243.07812 362.42188Q242.32812 362.42188 242.03125 363.14062L242.03125 367.5L240.34375 367.5L240.34375 363.46875Q240.34375 362.90625 240.125 362.67188Q239.90625 362.42188 239.39062 362.42188Q238.67188 362.42188 238.34375 363.01562L238.34375 367.5L236.65625 367.5L236.65625 361.15625L238.23438 361.15625ZM250.45312 366.85938Q249.82812 367.625 248.71875 367.625Q247.6875 367.625 247.15625 367.03125Q246.625 366.4375 246.60938 365.3125L246.60938 361.15625L248.29688 361.15625L248.29688 365.25Q248.29688 366.25 249.20312 366.25Q250.0625 366.25 250.39062 365.64062L250.39062 361.15625L252.09375 361.15625L252.09375 367.5L250.5 367.5L250.45312 366.85938ZM255.20312 361.15625L255.26562 361.89062Q255.9375 361.04688 257.07812 361.04688Q258.09375 361.04688 258.57812 361.64062Q259.07812 362.21875 259.09375 363.40625L259.09375 367.5L257.39062 367.5L257.39062 363.4375Q257.39062 362.90625 257.15625 362.67188Q256.92188 362.42188 256.375 362.42188Q255.67188 362.42188 255.3125 363.03125L255.3125 367.5L253.60938 367.5L253.60938 361.15625L255.20312 361.15625ZM262.4375 367.5L260.73438 367.5L260.73438 361.15625L262.4375 361.15625L262.4375 367.5ZM260.64062 359.51562Q260.64062 359.14062 260.89062 358.89062Q261.15625 358.64062 261.59375 358.64062Q262.01562 358.64062 262.26562 358.89062Q262.53125 359.14062 262.53125 359.51562Q262.53125 359.90625 262.26562 360.15625Q262.01562 360.39062 261.57812 360.39062Q261.15625 360.39062 260.89062 360.15625Q260.64062 359.90625 260.64062 359.51562ZM265.67188 359.59375L265.67188 361.15625L266.76562 361.15625L266.76562 362.40625L265.67188 362.40625L265.67188 365.5625Q265.67188 365.92188 265.8125 366.07812Q265.95312 366.21875 266.32812 366.21875Q266.60938 366.21875 266.82812 366.1875L266.82812 367.46875Q266.32812 367.625 265.79688 367.625Q264.01562 367.625 263.98438 365.8125L263.98438 362.40625L263.0625 362.40625L263.0625 361.15625L263.98438 361.15625L263.98438 359.59375L265.67188 359.59375ZM270.01562 365.10938L271.1875 361.15625L273.0 361.15625L270.45312 368.48438L270.3125 368.8125Q269.75 370.0625 268.4375 370.0625Q268.07812 370.0625 267.6875 369.95312L267.6875 368.67188L267.95312 368.67188Q268.4375 368.67188 268.67188 368.51562Q268.90625 368.375 269.04688 368.04688L269.23438 367.51562L267.01562 361.15625L268.84375 361.15625L270.01562 365.10938ZM283.1875 360.39062L280.57812 360.39062L280.57812 367.5L278.8125 367.5L278.8125 360.39062L276.23438 360.39062L276.23438 358.96875L283.1875 358.96875L283.1875 360.39062ZM287.21875 362.75Q286.875 362.70312 286.60938 362.70312Q285.64062 362.70312 285.34375 363.34375L285.34375 367.5L283.65625 367.5L283.65625 361.15625L285.25 361.15625L285.29688 361.92188Q285.8125 361.04688 286.70312 361.04688Q286.98438 361.04688 287.23438 361.125L287.21875 362.75ZM290.5625 367.625Q289.17188 367.625 288.29688 366.76562Q287.42188 365.90625 287.42188 364.48438L287.42188 364.3125Q287.42188 363.35938 287.78125 362.60938Q288.15625 361.85938 288.82812 361.45312Q289.51562 361.04688 290.375 361.04688Q291.6875 361.04688 292.42188 361.875Q293.17188 362.6875 293.17188 364.1875L293.17188 364.875L289.14062 364.875Q289.21875 365.5 289.625 365.875Q290.04688 366.25 290.6875 366.25Q291.65625 366.25 292.20312 365.54688L293.04688 366.46875Q292.65625 367.01562 292.0 367.32812Q291.35938 367.625 290.5625 367.625ZM290.375 362.40625Q289.875 362.40625 289.5625 362.75Q289.25 363.09375 289.15625 363.71875L291.51562 363.71875L291.51562 363.59375Q291.5 363.03125 291.20312 362.71875Q290.92188 362.40625 290.375 362.40625ZM297.32812 367.5Q297.20312 367.26562 297.15625 366.9375Q296.54688 367.625 295.5625 367.625Q294.625 367.625 294.01562 367.07812Q293.40625 366.53125 293.40625 365.71875Q293.40625 364.70312 294.14062 364.17188Q294.89062 363.625 296.3125 363.625L297.07812 363.625L297.07812 363.26562Q297.07812 362.82812 296.85938 362.5625Q296.64062 362.29688 296.14062 362.29688Q295.71875 362.29688 295.46875 362.5Q295.23438 362.70312 295.23438 363.0625L293.54688 363.0625Q293.54688 362.51562 293.875 362.04688Q294.21875 361.57812 294.84375 361.3125Q295.46875 361.04688 296.23438 361.04688Q297.40625 361.04688 298.09375 361.64062Q298.78125 362.21875 298.78125 363.28125L298.78125 366.03125Q298.79688 366.9375 299.03125 367.40625L299.03125 367.5L297.32812 367.5ZM295.92188 366.32812Q296.29688 366.32812 296.60938 366.15625Q296.9375 365.98438 297.07812 365.70312L297.07812 364.60938L296.45312 364.60938Q295.1875 364.60938 295.09375 365.5L295.09375 365.59375Q295.09375 365.90625 295.3125 366.125Q295.53125 366.32812 295.92188 366.32812ZM303.07812 365.75Q303.07812 365.4375 302.76562 365.26562Q302.46875 365.07812 301.79688 364.9375Q299.53125 364.46875 299.53125 363.01562Q299.53125 362.17188 300.21875 361.60938Q300.92188 361.04688 302.0625 361.04688Q303.26562 361.04688 303.98438 361.60938Q304.71875 362.17188 304.71875 363.09375L303.01562 363.09375Q303.01562 362.71875 302.78125 362.48438Q302.54688 362.25 302.04688 362.25Q301.625 362.25 301.39062 362.45312Q301.15625 362.64062 301.15625 362.9375Q301.15625 363.21875 301.42188 363.39062Q301.6875 363.5625 302.3125 363.6875Q302.95312 363.8125 303.39062 363.96875Q304.73438 364.46875 304.73438 365.67188Q304.73438 366.54688 303.98438 367.09375Q303.25 367.625 302.0625 367.625Q301.26562 367.625 300.64062 367.34375Q300.03125 367.04688 299.67188 366.5625Q299.32812 366.0625 299.32812 365.48438L300.9375 365.48438Q300.95312 365.9375 301.26562 366.1875Q301.57812 366.42188 302.09375 366.42188Q302.59375 366.42188 302.82812 366.23438Q303.07812 366.04688 303.07812 365.75ZM309.45312 366.85938Q308.82812 367.625 307.71875 367.625Q306.6875 367.625 306.15625 367.03125Q305.625 366.4375 305.60938 365.3125L305.60938 361.15625L307.29688 361.15625L307.29688 365.25Q307.29688 366.25 308.20312 366.25Q309.0625 366.25 309.39062 365.64062L309.39062 361.15625L311.09375 361.15625L311.09375 367.5L309.5 367.5L309.45312 366.85938ZM316.21875 362.75Q315.875 362.70312 315.60938 362.70312Q314.64062 362.70312 314.34375 363.34375L314.34375 367.5L312.65625 367.5L312.65625 361.15625L314.25 361.15625L314.29688 361.92188Q314.8125 361.04688 315.70312 361.04688Q315.98438 361.04688 316.23438 361.125L316.21875 362.75ZM319.01562 365.10938L320.1875 361.15625L322.0 361.15625L319.45312 368.48438L319.3125 368.8125Q318.75 370.0625 317.4375 370.0625Q317.07812 370.0625 316.6875 369.95312L316.6875 368.67188L316.95312 368.67188Q317.4375 368.67188 317.67188 368.51562Q317.90625 368.375 318.04688 368.04688L318.23438 367.51562L316.01562 361.15625L317.84375 361.15625L319.01562 365.10938Z" fill-rule="nonzero"/><path fill="#45818e" d="M350.0 363.0C350.0 366.31372 347.31372 369.0 344.0 369.0C340.68628 369.0 338.0 366.31372 338.0 363.0C338.0 359.68628 340.68628 357.0 344.0 357.0C347.31372 357.0 350.0 359.68628 350.0 363.0Z" fill-rule="nonzero"/><path fill="#1a1a1a" d="M360.625 367.5L358.875 367.5L358.875 358.96875L360.625 358.96875L360.625 367.5ZM364.20312 361.15625L364.26562 361.89062Q364.9375 361.04688 366.07812 361.04688Q367.09375 361.04688 367.57812 361.64062Q368.07812 362.21875 368.09375 363.40625L368.09375 367.5L366.39062 367.5L366.39062 363.4375Q366.39062 362.90625 366.15625 362.67188Q365.92188 362.42188 365.375 362.42188Q364.67188 362.42188 364.3125 363.03125L364.3125 367.5L362.60938 367.5L362.60938 361.15625L364.20312 361.15625ZM371.4375 367.5L369.73438 367.5L369.73438 361.15625L371.4375 361.15625L371.4375 367.5ZM369.64062 359.51562Q369.64062 359.14062 369.89062 358.89062Q370.15625 358.64062 370.59375 358.64062Q371.01562 358.64062 371.26562 358.89062Q371.53125 359.14062 371.53125 359.51562Q371.53125 359.90625 371.26562 360.15625Q371.01562 360.39062 370.57812 360.39062Q370.15625 360.39062 369.89062 360.15625Q369.64062 359.90625 369.64062 359.51562ZM374.67188 359.59375L374.67188 361.15625L375.76562 361.15625L375.76562 362.40625L374.67188 362.40625L374.67188 365.5625Q374.67188 365.92188 374.8125 366.07812Q374.95312 366.21875 375.32812 366.21875Q375.60938 366.21875 375.82812 366.1875L375.82812 367.46875Q375.32812 367.625 374.79688 367.625Q373.01562 367.625 372.98438 365.8125L372.98438 362.40625L372.0625 362.40625L372.0625 361.15625L372.98438 361.15625L372.98438 359.59375L374.67188 359.59375ZM378.4375 367.5L376.73438 367.5L376.73438 361.15625L378.4375 361.15625L378.4375 367.5ZM376.64062 359.51562Q376.64062 359.14062 376.89062 358.89062Q377.15625 358.64062 377.59375 358.64062Q378.01562 358.64062 378.26562 358.89062Q378.53125 359.14062 378.53125 359.51562Q378.53125 359.90625 378.26562 360.15625Q378.01562 360.39062 377.57812 360.39062Q377.15625 360.39062 376.89062 360.15625Q376.64062 359.90625 376.64062 359.51562ZM383.32812 367.5Q383.20312 367.26562 383.15625 366.9375Q382.54688 367.625 381.5625 367.625Q380.625 367.625 380.01562 367.07812Q379.40625 366.53125 379.40625 365.71875Q379.40625 364.70312 380.14062 364.17188Q380.89062 363.625 382.3125 363.625L383.07812 363.625L383.07812 363.26562Q383.07812 362.82812 382.85938 362.5625Q382.64062 362.29688 382.14062 362.29688Q381.71875 362.29688 381.46875 362.5Q381.23438 362.70312 381.23438 363.0625L379.54688 363.0625Q379.54688 362.51562 379.875 362.04688Q380.21875 361.57812 380.84375 361.3125Q381.46875 361.04688 382.23438 361.04688Q383.40625 361.04688 384.09375 361.64062Q384.78125 362.21875 384.78125 363.28125L384.78125 366.03125Q384.79688 366.9375 385.03125 367.40625L385.03125 367.5L383.32812 367.5ZM381.92188 366.32812Q382.29688 366.32812 382.60938 366.15625Q382.9375 365.98438 383.07812 365.70312L383.07812 364.60938L382.45312 364.60938Q381.1875 364.60938 381.09375 365.5L381.09375 365.59375Q381.09375 365.90625 381.3125 366.125Q381.53125 366.32812 381.92188 366.32812ZM387.4375 367.5L385.73438 367.5L385.73438 358.5L387.4375 358.5L387.4375 367.5ZM393.51562 366.09375L397.25 366.09375L397.25 367.5L391.76562 367.5L391.76562 358.96875L393.51562 358.96875L393.51562 366.09375ZM400.4375 367.5L398.73438 367.5L398.73438 361.15625L400.4375 361.15625L400.4375 367.5ZM398.64062 359.51562Q398.64062 359.14062 398.89062 358.89062Q399.15625 358.64062 399.59375 358.64062Q400.01562 358.64062 400.26562 358.89062Q400.53125 359.14062 400.53125 359.51562Q400.53125 359.90625 400.26562 360.15625Q400.01562 360.39062 399.57812 360.39062Q399.15625 360.39062 398.89062 360.15625Q398.64062 359.90625 398.64062 359.51562ZM401.39062 364.26562Q401.39062 362.78125 402.04688 361.92188Q402.71875 361.04688 403.875 361.04688Q404.89062 361.04688 405.5 361.82812L405.60938 361.15625L407.09375 361.15625L407.09375 369.9375L405.40625 369.9375L405.40625 366.95312Q404.8125 367.625 403.85938 367.625Q402.73438 367.625 402.0625 366.75Q401.39062 365.85938 401.39062 364.26562ZM403.07812 364.39062Q403.07812 365.29688 403.39062 365.78125Q403.71875 366.25 404.29688 366.25Q405.07812 366.25 405.40625 365.625L405.40625 363.01562Q405.07812 362.40625 404.3125 362.40625Q403.71875 362.40625 403.39062 362.89062Q403.07812 363.35938 403.07812 364.39062ZM412.45312 366.85938Q411.82812 367.625 410.71875 367.625Q409.6875 367.625 409.15625 367.03125Q408.625 366.4375 408.60938 365.3125L408.60938 361.15625L410.29688 361.15625L410.29688 365.25Q410.29688 366.25 411.20312 366.25Q412.0625 366.25 412.39062 365.64062L412.39062 361.15625L414.09375 361.15625L414.09375 367.5L412.5 367.5L412.45312 366.85938ZM417.4375 367.5L415.73438 367.5L415.73438 361.15625L417.4375 361.15625L417.4375 367.5ZM415.64062 359.51562Q415.64062 359.14062 415.89062 358.89062Q416.15625 358.64062 416.59375 358.64062Q417.01562 358.64062 417.26562 358.89062Q417.53125 359.14062 417.53125 359.51562Q417.53125 359.90625 417.26562 360.15625Q417.01562 360.39062 416.57812 360.39062Q416.15625 360.39062 415.89062 360.15625Q415.64062 359.90625 415.64062 359.51562ZM418.39062 364.28125Q418.39062 362.79688 419.04688 361.92188Q419.71875 361.04688 420.875 361.04688Q421.79688 361.04688 422.40625 361.73438L422.40625 358.5L424.09375 358.5L424.09375 367.5L422.57812 367.5L422.48438 366.82812Q421.85938 367.625 420.85938 367.625Q419.73438 367.625 419.0625 366.75Q418.39062 365.85938 418.39062 364.28125ZM420.07812 364.40625Q420.07812 365.29688 420.39062 365.78125Q420.70312 366.25 421.29688 366.25Q422.07812 366.25 422.40625 365.57812L422.40625 363.07812Q422.07812 362.42188 421.3125 362.42188Q420.07812 362.42188 420.07812 364.40625ZM427.4375 367.5L425.73438 367.5L425.73438 361.15625L427.4375 361.15625L427.4375 367.5ZM425.64062 359.51562Q425.64062 359.14062 425.89062 358.89062Q426.15625 358.64062 426.59375 358.64062Q427.01562 358.64062 427.26562 358.89062Q427.53125 359.14062 427.53125 359.51562Q427.53125 359.90625 427.26562 360.15625Q427.01562 360.39062 426.57812 360.39062Q426.15625 360.39062 425.89062 360.15625Q425.64062 359.90625 425.64062 359.51562ZM430.67188 359.59375L430.67188 361.15625L431.76562 361.15625L431.76562 362.40625L430.67188 362.40625L430.67188 365.5625Q430.67188 365.92188 430.8125 366.07812Q430.95312 366.21875 431.32812 366.21875Q431.60938 366.21875 431.82812 366.1875L431.82812 367.46875Q431.32812 367.625 430.79688 367.625Q429.01562 367.625 428.98438 365.8125L428.98438 362.40625L428.0625 362.40625L428.0625 361.15625L428.98438 361.15625L428.98438 359.59375L430.67188 359.59375ZM435.01562 365.10938L436.1875 361.15625L438.0 361.15625L435.45312 368.48438L435.3125 368.8125Q434.75 370.0625 433.4375 370.0625Q433.07812 370.0625 432.6875 369.95312L432.6875 368.67188L432.95312 368.67188Q433.4375 368.67188 433.67188 368.51562Q433.90625 368.375 434.04688 368.04688L434.23438 367.51562L432.01562 361.15625L433.84375 361.15625L435.01562 365.10938Z" fill-rule="nonzero"/></svg>