<svg version="1.1" viewBox="0.0 0.0 629.0 390.0" fill="none" stroke="none" stroke-linecap="square" stroke-miterlimit="10" width="629" height="390" xmlns:xlink="http://www.w3.org/1999/xlink" xmlns="http://www.w3.org/2000/svg"><path fill="#ffffff" d="M0 0L629.0 0L629.0 390.0L0 390.0L0 0Z" fill-rule="nonzero"/><path fill="#a98823" d="M346.0924 150.94174L461.7409 124.63821L461.7409 147.43822L346.0924 173.74173Z" fill-rule="nonzero"/><path fill="#a98823" d="M317.1803 136.23763C330.35037 136.23763 342.02264 142.17389 346.0924 150.94174L346.0924 173.74173C342.02264 164.97389 330.35037 159.03761 317.1803 159.03761Z" fill-rule="nonzero"/><path fill="#f1c232" d="M317.1803 51.11762C383.0307 51.11762 441.392 80.798996 461.7409 124.63821L346.0924 150.94174C342.02264 142.17389 330.35037 136.23763 317.1803 136.23763Z" fill-rule="nonzero"/><path fill="#885670" d="M354.05212 166.67589L469.7006 192.9794L469.7006 215.7794L354.05212 189.47588Z" fill-rule="nonzero"/><path fill="#885670" d="M477.14 182.9C477.14 194.06516 474.6295 205.16072 469.7006 215.7794L469.7006 192.9794C474.6295 182.36072 477.14 171.26515 477.14 160.1Z" fill-rule="nonzero"/><path fill="#885670" d="M354.05212 153.52412C355.0379 155.64786 355.54 157.86697 355.54 160.1L355.54 182.9C355.54 180.66698 355.0379 178.44786 354.05212 176.32411Z" fill-rule="nonzero"/><path fill="#c27ba0" d="M469.7006 127.22059C479.6198 148.59033 479.6198 171.60966 469.7006 192.9794L354.05212 166.67589C356.03595 162.40193 356.03595 157.79807 354.05212 153.52412Z" fill-rule="nonzero"/><path fill="#251452" d="M350.4863 171.5107L460.51328 207.75302L460.51328 230.55302L350.4863 194.31068Z" fill-rule="nonzero"/><path fill="#251452" d="M467.54016 218.12952C465.572 222.36964 463.2251 226.519 460.51328 230.55302L460.51328 207.75302C463.2251 203.719 465.572 199.56964 467.54016 195.32951Z" fill-rule="nonzero"/><path fill="#351c75" d="M467.54016 195.32951C465.572 199.56964 463.2251 203.719 460.51328 207.75302L350.4863 171.5107C351.02866 170.70389 351.49805 169.87401 351.8917 169.02599Z" fill-rule="nonzero"/><path fill="#4e769a" d="M337.4808 178.45293L414.99155 244.039L414.99155 266.83902L337.4808 201.25291Z" fill-rule="nonzero"/><path fill="#4e769a" d="M455.6368 230.15932C446.11017 244.33092 432.23148 256.85553 414.99155 266.83902L414.99155 244.039C432.23148 234.05553 446.11017 221.53091 455.6368 207.35931Z" fill-rule="nonzero"/><path fill="#6fa8dc" d="M455.6368 207.35931C446.11017 221.53091 432.23148 234.05553 414.99155 244.039L337.4808 178.45293C340.92877 176.45622 343.70453 173.95131 345.60986 171.11699Z" fill-rule="nonzero"/><path fill="#a16627" d="M308.08838 133.90054L285.30283 50.288246L285.30283 73.08825L308.08838 156.70053Z" fill-rule="nonzero"/><path fill="#a16627" d="M308.08838 133.90054C309.96603 133.64981 311.87326 133.5236 313.7848 133.5236L313.7848 156.32361C311.87326 156.32361 309.96603 156.44981 308.08838 156.70053Z" fill-rule="nonzero"/><path fill="#e69138" d="M285.30283 50.288246C294.69104 49.03462 304.22726 48.40361 313.7848 48.40361L313.7848 133.5236C311.87326 133.5236 309.96603 133.64981 308.08838 133.90054Z" fill-rule="nonzero"/><path fill="#305a63" d="M293.613 138.00166L222.13832 69.13814L222.13832 91.93814L293.613 160.80167Z" fill-rule="nonzero"/><path fill="#305a63" d="M293.613 138.00166C297.2333 136.16046 301.38962 134.90143 305.78528 134.31447L305.78528 157.11447C301.38962 157.70143 297.2333 158.96046 293.613 160.80167Z" fill-rule="nonzero"/><path fill="#45818e" d="M222.13832 69.13814C240.23976 59.932114 261.02142 53.63699 282.99973 50.702183L305.78528 134.31447C301.38962 134.90143 297.2333 136.16046 293.613 138.00166Z" fill-rule="nonzero"/><path fill="#678958" d="M405.38327 268.14328C360.01535 294.4154 297.05267 299.98322 243.77637 282.43427C190.50006 264.8853 156.49483 227.37674 156.49483 186.16066L156.49483 163.36067C156.49483 204.57674 190.50006 242.08531 243.77637 259.63428C297.05267 277.18323 360.01535 271.6154 405.38327 245.34328Z" fill-rule="nonzero"/><path fill="#678958" d="M278.09482 163.36067C278.09482 156.54883 282.75345 150.14868 290.62616 146.14479L290.62616 168.94478C282.75345 172.94868 278.09482 179.34883 278.09482 186.16066Z" fill-rule="nonzero"/><path fill="#93c47d" d="M405.38327 245.34328C362.66345 270.0819 304.08978 276.57593 252.53989 262.28888C200.98999 248.00185 164.64227 215.20042 157.69339 176.69612C150.74449 138.19182 174.29688 100.0934 219.15146 77.28126L290.62616 146.14479C281.65524 150.70721 276.94476 158.3269 278.33453 166.02776C279.7243 173.72862 286.99387 180.2889 297.30383 183.14632C307.61383 186.00372 319.32855 184.70491 327.8725 179.75719Z" fill-rule="nonzero"/><path fill="#000000" d="M366.9249 101.17219L366.26865 102.95344L360.7999 102.95344L360.7999 102.70344Q363.22177 100.50031 364.20615 99.10969Q365.19052 97.70344 365.19052 96.54719Q365.19052 95.67219 364.64365 95.10969Q364.1124 94.53156 363.34677 94.53156Q362.6749 94.53156 362.12802 94.93781Q361.58115 95.34406 361.33115 96.10969L361.06552 96.10969Q361.2374 94.84406 361.94052 94.17219Q362.65927 93.48469 363.72177 93.48469Q364.84677 93.48469 365.59677 94.21906Q366.3624 94.93781 366.3624 95.92219Q366.3624 96.62531 366.03427 97.32844Q365.51865 98.43781 364.39365 99.67219Q362.69052 101.53156 362.25302 101.92219L364.6749 101.92219Q365.4249 101.92219 365.72177 101.87531Q366.01865 101.81281 366.25302 101.64094Q366.4874 101.46906 366.6749 101.17219L366.9249 101.17219ZM368.00302 98.37531Q368.00302 96.78156 368.4874 95.64094Q368.97177 94.50031 369.75302 93.93781Q370.37802 93.48469 371.03427 93.48469Q372.09677 93.48469 372.94052 94.57844Q374.00302 95.92219 374.00302 98.23469Q374.00302 99.84406 373.53427 100.96906Q373.08115 102.09406 372.34677 102.60969Q371.62802 103.12531 370.95615 103.12531Q369.64365 103.12531 368.75302 101.54719Q368.00302 100.23469 368.00302 98.37531ZM369.34677 98.54719Q369.34677 100.45344 369.81552 101.67219Q370.20615 102.68781 370.9874 102.68781Q371.34677 102.68781 371.7374 102.35969Q372.14365 102.01594 372.34677 101.25031Q372.65927 100.06281 372.65927 97.92219Q372.65927 96.34406 372.33115 95.28156Q372.09677 94.50031 371.70615 94.17219Q371.4249 93.93781 371.01865 93.93781Q370.56552 93.93781 370.19052 94.35969Q369.70615 94.92219 369.51865 96.14094Q369.34677 97.35969 369.34677 98.54719ZM376.25302 101.62531Q376.58115 101.62531 376.7999 101.85969Q377.01865 102.07844 377.01865 102.39094Q377.01865 102.70344 376.78427 102.92219Q376.56552 103.14094 376.25302 103.14094Q375.94052 103.14094 375.70615 102.92219Q375.4874 102.70344 375.4874 102.39094Q375.4874 102.06281 375.70615 101.84406Q375.94052 101.62531 376.25302 101.62531ZM379.00302 98.37531Q379.00302 96.78156 379.4874 95.64094Q379.97177 94.50031 380.75302 93.93781Q381.37802 93.48469 382.03427 93.48469Q383.09677 93.48469 383.94052 94.57844Q385.00302 95.92219 385.00302 98.23469Q385.00302 99.84406 384.53427 100.96906Q384.08115 102.09406 383.34677 102.60969Q382.62802 103.12531 381.95615 103.12531Q380.64365 103.12531 379.75302 101.54719Q379.00302 100.23469 379.00302 98.37531ZM380.34677 98.54719Q380.34677 100.45344 380.81552 101.67219Q381.20615 102.68781 381.9874 102.68781Q382.34677 102.68781 382.7374 102.35969Q383.14365 102.01594 383.34677 101.25031Q383.65927 100.06281 383.65927 97.92219Q383.65927 96.34406 383.33115 95.28156Q383.09677 94.50031 382.70615 94.17219Q382.4249 93.93781 382.01865 93.93781Q381.56552 93.93781 381.19052 94.35969Q380.70615 94.92219 380.51865 96.14094Q380.34677 97.35969 380.34677 98.54719ZM395.01865 93.46906L388.26865 103.34406L387.65927 103.34406L394.40927 93.46906L395.01865 93.46906ZM387.9874 93.46906Q388.90927 93.46906 389.4249 94.23469Q389.94052 95.00031 389.94052 96.00031Q389.94052 97.18781 389.3624 97.84406Q388.78427 98.48469 387.97177 98.48469Q387.44052 98.48469 386.9874 98.18781Q386.53427 97.89094 386.26865 97.31281Q386.00302 96.71906 386.00302 96.00031Q386.00302 95.28156 386.26865 94.67219Q386.5499 94.06281 387.01865 93.76594Q387.4874 93.46906 387.9874 93.46906ZM387.97177 93.85969Q387.62802 93.85969 387.34677 94.26594Q387.08115 94.67219 387.08115 95.98469Q387.08115 96.93781 387.2374 97.43781Q387.34677 97.81281 387.59677 98.01594Q387.7374 98.14094 387.95615 98.14094Q388.28427 98.14094 388.51865 97.78156Q388.84677 97.26594 388.84677 96.03156Q388.84677 94.73469 388.51865 94.20344Q388.2999 93.85969 387.97177 93.85969ZM394.70615 98.35969Q395.19052 98.35969 395.6749 98.67219Q396.15927 98.96906 396.40927 99.56281Q396.6749 100.14094 396.6749 100.84406Q396.6749 102.06281 396.09677 102.70344Q395.51865 103.34406 394.72177 103.34406Q394.22177 103.34406 393.75302 103.03156Q393.28427 102.71906 393.01865 102.15656Q392.75302 101.57844 392.75302 100.84406Q392.75302 100.12531 393.01865 99.53156Q393.28427 98.93781 393.75302 98.65656Q394.22177 98.35969 394.70615 98.35969ZM394.70615 98.71906Q394.37802 98.71906 394.14365 99.07844Q393.83115 99.56281 393.83115 100.89094Q393.83115 102.12531 394.14365 102.60969Q394.37802 102.95344 394.70615 102.95344Q395.01865 102.95344 395.26865 102.57844Q395.59677 102.07844 395.59677 100.85969Q395.59677 99.57844 395.26865 99.06281Q395.0499 98.71906 394.70615 98.71906Z" fill-rule="nonzero"/><path fill="#000000" d="M422.9233 156.74063L425.1733 155.63126L425.40768 155.63126L425.40768 163.45938Q425.40768 164.24063 425.47018 164.44376Q425.53268 164.63126 425.7358 164.74063Q425.93893 164.83438 426.57956 164.85L426.57956 165.1L423.09518 165.1L423.09518 164.85Q423.75143 164.83438 423.93893 164.74063Q424.12643 164.63126 424.20456 164.475Q424.28268 164.30313 424.28268 163.45938L424.28268 158.45938Q424.28268 157.44376 424.20456 157.1625Q424.15768 156.94376 424.03268 156.85Q423.90768 156.74063 423.7358 156.74063Q423.47018 156.74063 423.03268 156.94376L422.9233 156.74063ZM428.78268 160.52188Q428.78268 158.92813 429.26706 157.7875Q429.75143 156.64688 430.53268 156.08438Q431.15768 155.63126 431.81393 155.63126Q432.87643 155.63126 433.72018 156.725Q434.78268 158.06876 434.78268 160.38126Q434.78268 161.99063 434.31393 163.11563Q433.8608 164.24063 433.12643 164.75626Q432.40768 165.27188 431.7358 165.27188Q430.4233 165.27188 429.53268 163.69376Q428.78268 162.38126 428.78268 160.52188ZM430.12643 160.69376Q430.12643 162.6 430.59518 163.81876Q430.9858 164.83438 431.76706 164.83438Q432.12643 164.83438 432.51706 164.50626Q432.9233 164.1625 433.12643 163.39688Q433.43893 162.20938 433.43893 160.06876Q433.43893 158.49063 433.1108 157.42813Q432.87643 156.64688 432.4858 156.31876Q432.20456 156.08438 431.7983 156.08438Q431.34518 156.08438 430.97018 156.50626Q430.4858 157.06876 430.2983 158.2875Q430.12643 159.50626 430.12643 160.69376ZM437.03268 163.77188Q437.3608 163.77188 437.57956 164.00626Q437.7983 164.225 437.7983 164.5375Q437.7983 164.85 437.56393 165.06876Q437.34518 165.2875 437.03268 165.2875Q436.72018 165.2875 436.4858 165.06876Q436.26706 164.85 436.26706 164.5375Q436.26706 164.20938 436.4858 163.99063Q436.72018 163.77188 437.03268 163.77188ZM439.78268 160.52188Q439.78268 158.92813 440.26706 157.7875Q440.75143 156.64688 441.53268 156.08438Q442.15768 155.63126 442.81393 155.63126Q443.87643 155.63126 444.72018 156.725Q445.78268 158.06876 445.78268 160.38126Q445.78268 161.99063 445.31393 163.11563Q444.8608 164.24063 444.12643 164.75626Q443.40768 165.27188 442.7358 165.27188Q441.4233 165.27188 440.53268 163.69376Q439.78268 162.38126 439.78268 160.52188ZM441.12643 160.69376Q441.12643 162.6 441.59518 163.81876Q441.9858 164.83438 442.76706 164.83438Q443.12643 164.83438 443.51706 164.50626Q443.9233 164.1625 444.12643 163.39688Q444.43893 162.20938 444.43893 160.06876Q444.43893 158.49063 444.1108 157.42813Q443.87643 156.64688 443.4858 156.31876Q443.20456 156.08438 442.7983 156.08438Q442.34518 156.08438 441.97018 156.50626Q441.4858 157.06876 441.2983 158.2875Q441.12643 159.50626 441.12643 160.69376ZM455.7983 155.61563L449.0483 165.49063L448.43893 165.49063L455.18893 155.61563L455.7983 155.61563ZM448.76706 155.61563Q449.68893 155.61563 450.20456 156.38126Q450.72018 157.14688 450.72018 158.14688Q450.72018 159.33438 450.14206 159.99063Q449.56393 160.63126 448.75143 160.63126Q448.22018 160.63126 447.76706 160.33438Q447.31393 160.0375 447.0483 159.45938Q446.78268 158.86563 446.78268 158.14688Q446.78268 157.42813 447.0483 156.81876Q447.32956 156.20938 447.7983 155.9125Q448.26706 155.61563 448.76706 155.61563ZM448.75143 156.00626Q448.40768 156.00626 448.12643 156.4125Q447.8608 156.81876 447.8608 158.13126Q447.8608 159.08438 448.01706 159.58438Q448.12643 159.95938 448.37643 160.1625Q448.51706 160.2875 448.7358 160.2875Q449.06393 160.2875 449.2983 159.92813Q449.62643 159.4125 449.62643 158.17813Q449.62643 156.88126 449.2983 156.35Q449.07956 156.00626 448.75143 156.00626ZM455.4858 160.50626Q455.97018 160.50626 456.45456 160.81876Q456.93893 161.11563 457.18893 161.70938Q457.45456 162.2875 457.45456 162.99063Q457.45456 164.20938 456.87643 164.85Q456.2983 165.49063 455.50143 165.49063Q455.00143 165.49063 454.53268 165.17813Q454.06393 164.86563 453.7983 164.30313Q453.53268 163.725 453.53268 162.99063Q453.53268 162.27188 453.7983 161.67813Q454.06393 161.08438 454.53268 160.80313Q455.00143 160.50626 455.4858 160.50626ZM455.4858 160.86563Q455.15768 160.86563 454.9233 161.225Q454.6108 161.70938 454.6108 163.0375Q454.6108 164.27188 454.9233 164.75626Q455.15768 165.1 455.4858 165.1Q455.7983 165.1 456.0483 164.725Q456.37643 164.225 456.37643 163.00626Q456.37643 161.725 456.0483 161.20938Q455.82956 160.86563 455.4858 160.86563Z" fill-rule="nonzero"/><path fill="#000000" d="M389.55356 203.96771L394.5223 203.96771L394.5223 204.21771L391.42856 213.42084L390.66293 213.42084L393.44418 205.07709L390.88168 205.07709Q390.11606 205.07709 389.78793 205.26459Q389.2098 205.57709 388.86606 206.23334L388.66293 206.15521L389.55356 203.96771ZM396.8973 211.90521Q397.22543 211.90521 397.44418 212.13959Q397.66293 212.35834 397.66293 212.67084Q397.66293 212.98334 397.42856 213.20209Q397.2098 213.42084 396.8973 213.42084Q396.5848 213.42084 396.35043 213.20209Q396.13168 212.98334 396.13168 212.67084Q396.13168 212.34271 396.35043 212.12396Q396.5848 211.90521 396.8973 211.90521ZM399.6473 208.65521Q399.6473 207.06146 400.13168 205.92084Q400.61606 204.78021 401.3973 204.21771Q402.0223 203.76459 402.67856 203.76459Q403.74106 203.76459 404.5848 204.85834Q405.6473 206.20209 405.6473 208.51459Q405.6473 210.12396 405.17856 211.24896Q404.72543 212.37396 403.99106 212.88959Q403.2723 213.40521 402.60043 213.40521Q401.28793 213.40521 400.3973 211.82709Q399.6473 210.51459 399.6473 208.65521ZM400.99106 208.82709Q400.99106 210.73334 401.4598 211.95209Q401.85043 212.96771 402.63168 212.96771Q402.99106 212.96771 403.38168 212.63959Q403.78793 212.29584 403.99106 211.53021Q404.30356 210.34271 404.30356 208.20209Q404.30356 206.62396 403.97543 205.56146Q403.74106 204.78021 403.35043 204.45209Q403.06918 204.21771 402.66293 204.21771Q402.2098 204.21771 401.8348 204.63959Q401.35043 205.20209 401.16293 206.42084Q400.99106 207.63959 400.99106 208.82709ZM415.66293 203.74896L408.91293 213.62396L408.30356 213.62396L415.05356 203.74896L415.66293 203.74896ZM408.63168 203.74896Q409.55356 203.74896 410.06918 204.51459Q410.5848 205.28021 410.5848 206.28021Q410.5848 207.46771 410.00668 208.12396Q409.42856 208.76459 408.61606 208.76459Q408.0848 208.76459 407.63168 208.46771Q407.17856 208.17084 406.91293 207.59271Q406.6473 206.99896 406.6473 206.28021Q406.6473 205.56146 406.91293 204.95209Q407.19418 204.34271 407.66293 204.04584Q408.13168 203.74896 408.63168 203.74896ZM408.61606 204.13959Q408.2723 204.13959 407.99106 204.54584Q407.72543 204.95209 407.72543 206.26459Q407.72543 207.21771 407.88168 207.71771Q407.99106 208.09271 408.24106 208.29584Q408.38168 208.42084 408.60043 208.42084Q408.92856 208.42084 409.16293 208.06146Q409.49106 207.54584 409.49106 206.31146Q409.49106 205.01459 409.16293 204.48334Q408.94418 204.13959 408.61606 204.13959ZM415.35043 208.63959Q415.8348 208.63959 416.31918 208.95209Q416.80356 209.24896 417.05356 209.84271Q417.31918 210.42084 417.31918 211.12396Q417.31918 212.34271 416.74106 212.98334Q416.16293 213.62396 415.36606 213.62396Q414.86606 213.62396 414.3973 213.31146Q413.92856 212.99896 413.66293 212.43646Q413.3973 211.85834 413.3973 211.12396Q413.3973 210.40521 413.66293 209.81146Q413.92856 209.21771 414.3973 208.93646Q414.86606 208.63959 415.35043 208.63959ZM415.35043 208.99896Q415.0223 208.99896 414.78793 209.35834Q414.47543 209.84271 414.47543 211.17084Q414.47543 212.40521 414.78793 212.88959Q415.0223 213.23334 415.35043 213.23334Q415.66293 213.23334 415.91293 212.85834Q416.24106 212.35834 416.24106 211.13959Q416.24106 209.85834 415.91293 209.34271Q415.69418 208.99896 415.35043 208.99896Z" fill-rule="nonzero"/><path fill="#000000" d="M213.14021 204.12549L212.60896 205.28174L209.81209 205.28174L209.20271 206.53174Q211.01521 206.79736 212.07771 207.87549Q212.98396 208.79736 212.98396 210.06299Q212.98396 210.79736 212.68709 211.42236Q212.39021 212.03174 211.93709 212.46924Q211.49959 212.90674 210.93709 213.17236Q210.15584 213.56299 209.32771 213.56299Q208.48396 213.56299 208.10896 213.28174Q207.73396 212.98486 207.73396 212.64111Q207.73396 212.45361 207.89021 212.31299Q208.04646 212.15674 208.28084 212.15674Q208.46834 212.15674 208.59334 212.21924Q208.73396 212.26611 209.04646 212.50049Q209.56209 212.84424 210.09334 212.84424Q210.89021 212.84424 211.48396 212.25049Q212.09334 211.64111 212.09334 210.76611Q212.09334 209.93799 211.54646 209.20361Q211.01521 208.46924 210.07771 208.07861Q209.32771 207.76611 208.04646 207.71924L209.81209 204.12549L213.14021 204.12549ZM215.70271 205.03174L217.95271 203.92236L218.18709 203.92236L218.18709 211.75049Q218.18709 212.53174 218.24959 212.73486Q218.31209 212.92236 218.51521 213.03174Q218.71834 213.12549 219.35896 213.14111L219.35896 213.39111L215.87459 213.39111L215.87459 213.14111Q216.53084 213.12549 216.71834 213.03174Q216.90584 212.92236 216.98396 212.76611Q217.06209 212.59424 217.06209 211.75049L217.06209 206.75049Q217.06209 205.73486 216.98396 205.45361Q216.93709 205.23486 216.81209 205.14111Q216.68709 205.03174 216.51521 205.03174Q216.24959 205.03174 215.81209 205.23486L215.70271 205.03174ZM222.81209 212.06299Q223.14021 212.06299 223.35896 212.29736Q223.57771 212.51611 223.57771 212.82861Q223.57771 213.14111 223.34334 213.35986Q223.12459 213.57861 222.81209 213.57861Q222.49959 213.57861 222.26521 213.35986Q222.04646 213.14111 222.04646 212.82861Q222.04646 212.50049 222.26521 212.28174Q222.49959 212.06299 222.81209 212.06299ZM225.56209 208.81299Q225.56209 207.21924 226.04646 206.07861Q226.53084 204.93799 227.31209 204.37549Q227.93709 203.92236 228.59334 203.92236Q229.65584 203.92236 230.49959 205.01611Q231.56209 206.35986 231.56209 208.67236Q231.56209 210.28174 231.09334 211.40674Q230.64021 212.53174 229.90584 213.04736Q229.18709 213.56299 228.51521 213.56299Q227.20271 213.56299 226.31209 211.98486Q225.56209 210.67236 225.56209 208.81299ZM226.90584 208.98486Q226.90584 210.89111 227.37459 212.10986Q227.76521 213.12549 228.54646 213.12549Q228.90584 213.12549 229.29646 212.79736Q229.70271 212.45361 229.90584 211.68799Q230.21834 210.50049 230.21834 208.35986Q230.21834 206.78174 229.89021 205.71924Q229.65584 204.93799 229.26521 204.60986Q228.98396 204.37549 228.57771 204.37549Q228.12459 204.37549 227.74959 204.79736Q227.26521 205.35986 227.07771 206.57861Q226.90584 207.79736 226.90584 208.98486ZM241.57771 203.90674L234.82771 213.78174L234.21834 213.78174L240.96834 203.90674L241.57771 203.90674ZM234.54646 203.90674Q235.46834 203.90674 235.98396 204.67236Q236.49959 205.43799 236.49959 206.43799Q236.49959 207.62549 235.92146 208.28174Q235.34334 208.92236 234.53084 208.92236Q233.99959 208.92236 233.54646 208.62549Q233.09334 208.32861 232.82771 207.75049Q232.56209 207.15674 232.56209 206.43799Q232.56209 205.71924 232.82771 205.10986Q233.10896 204.50049 233.57771 204.20361Q234.04646 203.90674 234.54646 203.90674ZM234.53084 204.29736Q234.18709 204.29736 233.90584 204.70361Q233.64021 205.10986 233.64021 206.42236Q233.64021 207.37549 233.79646 207.87549Q233.90584 208.25049 234.15584 208.45361Q234.29646 208.57861 234.51521 208.57861Q234.84334 208.57861 235.07771 208.21924Q235.40584 207.70361 235.40584 206.46924Q235.40584 205.17236 235.07771 204.64111Q234.85896 204.29736 234.53084 204.29736ZM241.26521 208.79736Q241.74959 208.79736 242.23396 209.10986Q242.71834 209.40674 242.96834 210.00049Q243.23396 210.57861 243.23396 211.28174Q243.23396 212.50049 242.65584 213.14111Q242.07771 213.78174 241.28084 213.78174Q240.78084 213.78174 240.31209 213.46924Q239.84334 213.15674 239.57771 212.59424Q239.31209 212.01611 239.31209 211.28174Q239.31209 210.56299 239.57771 209.96924Q239.84334 209.37549 240.31209 209.09424Q240.78084 208.79736 241.26521 208.79736ZM241.26521 209.15674Q240.93709 209.15674 240.70271 209.51611Q240.39021 210.00049 240.39021 211.32861Q240.39021 212.56299 240.70271 213.04736Q240.93709 213.39111 241.26521 213.39111Q241.57771 213.39111 241.82771 213.01611Q242.15584 212.51611 242.15584 211.29736Q242.15584 210.01611 241.82771 209.50049Q241.60896 209.15674 241.26521 209.15674Z" fill-rule="nonzero"/><path fill="#000000" d="M254.64218 80.997406L259.61093 80.997406L259.61093 81.247406L256.51718 90.45053L255.75156 90.45053L258.5328 82.10678L255.9703 82.10678Q255.20468 82.10678 254.87656 82.29428Q254.29843 82.60678 253.95468 83.26303L253.75156 83.184906L254.64218 80.997406ZM261.98593 88.934906Q262.31406 88.934906 262.5328 89.16928Q262.75156 89.38803 262.75156 89.70053Q262.75156 90.01303 262.51718 90.23178Q262.29843 90.45053 261.98593 90.45053Q261.67343 90.45053 261.43906 90.23178Q261.2203 90.01303 261.2203 89.70053Q261.2203 89.372406 261.43906 89.153656Q261.67343 88.934906 261.98593 88.934906ZM264.73593 85.684906Q264.73593 84.091156 265.2203 82.95053Q265.70468 81.809906 266.48593 81.247406Q267.11093 80.79428 267.76718 80.79428Q268.82968 80.79428 269.67343 81.88803Q270.73593 83.23178 270.73593 85.54428Q270.73593 87.153656 270.26718 88.278656Q269.81406 89.403656 269.07968 89.91928Q268.36093 90.434906 267.68906 90.434906Q266.37656 90.434906 265.48593 88.85678Q264.73593 87.54428 264.73593 85.684906ZM266.07968 85.85678Q266.07968 87.76303 266.54843 88.98178Q266.93906 89.997406 267.7203 89.997406Q268.07968 89.997406 268.4703 89.66928Q268.87656 89.32553 269.07968 88.559906Q269.39218 87.372406 269.39218 85.23178Q269.39218 83.653656 269.06406 82.591156Q268.82968 81.809906 268.43906 81.48178Q268.1578 81.247406 267.75156 81.247406Q267.29843 81.247406 266.92343 81.66928Q266.43906 82.23178 266.25156 83.45053Q266.07968 84.66928 266.07968 85.85678ZM280.75156 80.778656L274.00156 90.653656L273.39218 90.653656L280.14218 80.778656L280.75156 80.778656ZM273.7203 80.778656Q274.64218 80.778656 275.1578 81.54428Q275.67343 82.309906 275.67343 83.309906Q275.67343 84.497406 275.0953 85.153656Q274.51718 85.79428 273.70468 85.79428Q273.17343 85.79428 272.7203 85.497406Q272.26718 85.20053 272.00156 84.622406Q271.73593 84.028656 271.73593 83.309906Q271.73593 82.591156 272.00156 81.98178Q272.2828 81.372406 272.75156 81.07553Q273.2203 80.778656 273.7203 80.778656ZM273.70468 81.16928Q273.36093 81.16928 273.07968 81.57553Q272.81406 81.98178 272.81406 83.29428Q272.81406 84.247406 272.9703 84.747406Q273.07968 85.122406 273.32968 85.32553Q273.4703 85.45053 273.68906 85.45053Q274.01718 85.45053 274.25156 85.091156Q274.57968 84.57553 274.57968 83.341156Q274.57968 82.04428 274.25156 81.51303Q274.0328 81.16928 273.70468 81.16928ZM280.43906 85.66928Q280.92343 85.66928 281.4078 85.98178Q281.89218 86.278656 282.14218 86.872406Q282.4078 87.45053 282.4078 88.153656Q282.4078 89.372406 281.82968 90.01303Q281.25156 90.653656 280.45468 90.653656Q279.95468 90.653656 279.48593 90.341156Q279.01718 90.028656 278.75156 89.466156Q278.48593 88.88803 278.48593 88.153656Q278.48593 87.434906 278.75156 86.841156Q279.01718 86.247406 279.48593 85.966156Q279.95468 85.66928 280.43906 85.66928ZM280.43906 86.028656Q280.11093 86.028656 279.87656 86.38803Q279.56406 86.872406 279.56406 88.20053Q279.56406 89.434906 279.87656 89.91928Q280.11093 90.26303 280.43906 90.26303Q280.75156 90.26303 281.00156 89.88803Q281.32968 89.38803 281.32968 88.16928Q281.32968 86.88803 281.00156 86.372406Q280.7828 86.028656 280.43906 86.028656Z" fill-rule="nonzero"/><path fill="#f1c232" d="M62.5 344.0C62.5 347.31372 59.81371 350.0 56.5 350.0C53.18629 350.0 50.5 347.31372 50.5 344.0C50.5 340.68628 53.18629 338.0 56.5 338.0C59.81371 338.0 62.5 340.68628 62.5 344.0Z" fill-rule="nonzero"/><path fill="#1a1a1a" d="M76.390625 345.01562L73.015625 345.01562L73.015625 348.5L71.265625 348.5L71.265625 339.96875L76.8125 339.96875L76.8125 341.39062L73.015625 341.39062L73.015625 343.59375L76.390625 343.59375L76.390625 345.01562ZM81.953125 347.85938Q81.328125 348.625 80.21875 348.625Q79.1875 348.625 78.65625 348.03125Q78.125 347.4375 78.109375 346.3125L78.109375 342.15625L79.796875 342.15625L79.796875 346.25Q79.796875 347.25 80.703125 347.25Q81.5625 347.25 81.890625 346.64062L81.890625 342.15625L83.59375 342.15625L83.59375 348.5L82.0 348.5L81.953125 347.85938ZM86.703125 342.15625L86.765625 342.89062Q87.4375 342.04688 88.578125 342.04688Q89.59375 342.04688 90.078125 342.64062Q90.578125 343.21875 90.59375 344.40625L90.59375 348.5L88.890625 348.5L88.890625 344.4375Q88.890625 343.90625 88.65625 343.67188Q88.421875 343.42188 87.875 343.42188Q87.171875 343.42188 86.8125 344.03125L86.8125 348.5L85.109375 348.5L85.109375 342.15625L86.703125 342.15625ZM91.890625 345.28125Q91.890625 343.79688 92.546875 342.92188Q93.21875 342.04688 94.375 342.04688Q95.296875 342.04688 95.90625 342.73438L95.90625 339.5L97.59375 339.5L97.59375 348.5L96.078125 348.5L95.984375 347.82812Q95.359375 348.625 94.359375 348.625Q93.234375 348.625 92.5625 347.75Q91.890625 346.85938 91.890625 345.28125ZM93.578125 345.40625Q93.578125 346.29688 93.890625 346.78125Q94.203125 347.25 94.796875 347.25Q95.578125 347.25 95.90625 346.57812L95.90625 344.07812Q95.578125 343.42188 94.8125 343.42188Q93.578125 343.42188 93.578125 345.40625ZM105.421875 345.375L104.015625 345.375L104.015625 348.5L102.265625 348.5L102.265625 339.96875L105.4375 339.96875Q106.9375 339.96875 107.75 340.64062Q108.578125 341.3125 108.578125 342.54688Q108.578125 343.42188 108.203125 344.0Q107.828125 344.57812 107.0625 344.9375L108.90625 348.42188L108.90625 348.5L107.015625 348.5L105.421875 345.375ZM104.015625 343.95312L105.4375 343.95312Q106.09375 343.95312 106.453125 343.625Q106.828125 343.28125 106.828125 342.6875Q106.828125 342.07812 106.484375 341.73438Q106.140625 341.39062 105.4375 341.39062L104.015625 341.39062L104.015625 343.95312ZM113.828125 348.5Q113.703125 348.26562 113.65625 347.9375Q113.046875 348.625 112.0625 348.625Q111.125 348.625 110.515625 348.07812Q109.90625 347.53125 109.90625 346.71875Q109.90625 345.70312 110.640625 345.17188Q111.390625 344.625 112.8125 344.625L113.578125 344.625L113.578125 344.26562Q113.578125 343.82812 113.359375 343.5625Q113.140625 343.29688 112.640625 343.29688Q112.21875 343.29688 111.96875 343.5Q111.734375 343.70312 111.734375 344.0625L110.046875 344.0625Q110.046875 343.51562 110.375 343.04688Q110.71875 342.57812 111.34375 342.3125Q111.96875 342.04688 112.734375 342.04688Q113.90625 342.04688 114.59375 342.64062Q115.28125 343.21875 115.28125 344.28125L115.28125 347.03125Q115.296875 347.9375 115.53125 348.40625L115.53125 348.5L113.828125 348.5ZM112.421875 347.32812Q112.796875 347.32812 113.109375 347.15625Q113.4375 346.98438 113.578125 346.70312L113.578125 345.60938L112.953125 345.60938Q111.6875 345.60938 111.59375 346.5L111.59375 346.59375Q111.59375 346.90625 111.8125 347.125Q112.03125 347.32812 112.421875 347.32812ZM117.9375 348.5L116.234375 348.5L116.234375 342.15625L117.9375 342.15625L117.9375 348.5ZM116.140625 340.51562Q116.140625 340.14062 116.390625 339.89062Q116.65625 339.64062 117.09375 339.64062Q117.515625 339.64062 117.765625 339.89062Q118.03125 340.14062 118.03125 340.51562Q118.03125 340.90625 117.765625 341.15625Q117.515625 341.39062 117.078125 341.39062Q116.65625 341.39062 116.390625 341.15625Q116.140625 340.90625 116.140625 340.51562ZM122.578125 346.75Q122.578125 346.4375 122.265625 346.26562Q121.96875 346.07812 121.296875 345.9375Q119.03125 345.46875 119.03125 344.01562Q119.03125 343.17188 119.71875 342.60938Q120.421875 342.04688 121.5625 342.04688Q122.765625 342.04688 123.484375 342.60938Q124.21875 343.17188 124.21875 344.09375L122.515625 344.09375Q122.515625 343.71875 122.28125 343.48438Q122.046875 343.25 121.546875 343.25Q121.125 343.25 120.890625 343.45312Q120.65625 343.64062 120.65625 343.9375Q120.65625 344.21875 120.921875 344.39062Q121.1875 344.5625 121.8125 344.6875Q122.453125 344.8125 122.890625 344.96875Q124.234375 345.46875 124.234375 346.67188Q124.234375 347.54688 123.484375 348.09375Q122.75 348.625 121.5625 348.625Q120.765625 348.625 120.140625 348.34375Q119.53125 348.04688 119.171875 347.5625Q118.828125 347.0625 118.828125 346.48438L120.4375 346.48438Q120.453125 346.9375 120.765625 347.1875Q121.078125 347.42188 121.59375 347.42188Q122.09375 347.42188 122.328125 347.23438Q122.578125 347.04688 122.578125 346.75ZM126.9375 348.5L125.234375 348.5L125.234375 342.15625L126.9375 342.15625L126.9375 348.5ZM125.140625 340.51562Q125.140625 340.14062 125.390625 339.89062Q125.65625 339.64062 126.09375 339.64062Q126.515625 339.64062 126.765625 339.89062Q127.03125 340.14062 127.03125 340.51562Q127.03125 340.90625 126.765625 341.15625Q126.515625 341.39062 126.078125 341.39062Q125.65625 341.39062 125.390625 341.15625Q125.140625 340.90625 125.140625 340.51562ZM129.70312 342.15625L129.76562 342.89062Q130.4375 342.04688 131.57812 342.04688Q132.59375 342.04688 133.07812 342.64062Q133.57812 343.21875 133.59375 344.40625L133.59375 348.5L131.89062 348.5L131.89062 344.4375Q131.89062 343.90625 131.65625 343.67188Q131.42188 343.42188 130.875 343.42188Q130.17188 343.42188 129.8125 344.03125L129.8125 348.5L128.10938 348.5L128.10938 342.15625L129.70312 342.15625ZM134.90625 345.28125Q134.90625 343.82812 135.59375 342.9375Q136.29688 342.04688 137.46875 342.04688Q138.51562 342.04688 139.09375 342.75L139.17188 342.15625L140.70312 342.15625L140.70312 348.28125Q140.70312 349.125 140.3125 349.73438Q139.9375 350.35938 139.25 350.67188Q138.57812 351.0 137.65625 351.0Q136.95312 351.0 136.28125 350.71875Q135.625 350.4375 135.29688 350.0L136.04688 348.96875Q136.67188 349.67188 137.57812 349.67188Q138.25 349.67188 138.625 349.3125Q139.0 348.95312 139.0 348.29688L139.0 347.95312Q138.42188 348.625 137.45312 348.625Q136.3125 348.625 135.60938 347.73438Q134.90625 346.82812 134.90625 345.35938L134.90625 345.28125ZM136.59375 345.40625Q136.59375 346.26562 136.9375 346.76562Q137.29688 347.25 137.89062 347.25Q138.67188 347.25 139.0 346.67188L139.0 344.0Q138.65625 343.42188 137.90625 343.42188Q137.29688 343.42188 136.9375 343.92188Q136.59375 344.42188 136.59375 345.40625Z" fill-rule="nonzero"/><path fill="#c27ba0" d="M169.5 344.0C169.5 347.31372 166.8137 350.0 163.5 350.0C160.1863 350.0 157.5 347.31372 157.5 344.0C157.5 340.68628 160.1863 338.0 163.5 338.0C166.8137 338.0 169.5 340.68628 169.5 344.0Z" fill-rule="nonzero"/><path fill="#1a1a1a" d="M184.6875 341.39062L182.07812 341.39062L182.07812 348.5L180.3125 348.5L180.3125 341.39062L177.73438 341.39062L177.73438 339.96875L184.6875 339.96875L184.6875 341.39062ZM188.0625 348.625Q186.67188 348.625 185.79688 347.76562Q184.92188 346.90625 184.92188 345.48438L184.92188 345.3125Q184.92188 344.35938 185.28125 343.60938Q185.65625 342.85938 186.32812 342.45312Q187.01562 342.04688 187.875 342.04688Q189.1875 342.04688 189.92188 342.875Q190.67188 343.6875 190.67188 345.1875L190.67188 345.875L186.64062 345.875Q186.71875 346.5 187.125 346.875Q187.54688 347.25 188.1875 347.25Q189.15625 347.25 189.70312 346.54688L190.54688 347.46875Q190.15625 348.01562 189.5 348.32812Q188.85938 348.625 188.0625 348.625ZM187.875 343.40625Q187.375 343.40625 187.0625 343.75Q186.75 344.09375 186.65625 344.71875L189.01562 344.71875L189.01562 344.59375Q189.0 344.03125 188.70312 343.71875Q188.42188 343.40625 187.875 343.40625ZM194.82812 348.5Q194.70312 348.26562 194.65625 347.9375Q194.04688 348.625 193.0625 348.625Q192.125 348.625 191.51562 348.07812Q190.90625 347.53125 190.90625 346.71875Q190.90625 345.70312 191.64062 345.17188Q192.39062 344.625 193.8125 344.625L194.57812 344.625L194.57812 344.26562Q194.57812 343.82812 194.35938 343.5625Q194.14062 343.29688 193.64062 343.29688Q193.21875 343.29688 192.96875 343.5Q192.73438 343.70312 192.73438 344.0625L191.04688 344.0625Q191.04688 343.51562 191.375 343.04688Q191.71875 342.57812 192.34375 342.3125Q192.96875 342.04688 193.73438 342.04688Q194.90625 342.04688 195.59375 342.64062Q196.28125 343.21875 196.28125 344.28125L196.28125 347.03125Q196.29688 347.9375 196.53125 348.40625L196.53125 348.5L194.82812 348.5ZM193.42188 347.32812Q193.79688 347.32812 194.10938 347.15625Q194.4375 346.98438 194.57812 346.70312L194.57812 345.60938L193.95312 345.60938Q192.6875 345.60938 192.59375 346.5L192.59375 346.59375Q192.59375 346.90625 192.8125 347.125Q193.03125 347.32812 193.42188 347.32812ZM198.73438 342.15625L198.79688 342.875Q199.46875 342.04688 200.60938 342.04688Q201.84375 342.04688 202.29688 343.01562Q202.96875 342.04688 204.20312 342.04688Q205.23438 342.04688 205.73438 342.65625Q206.23438 343.25 206.23438 344.45312L206.23438 348.5L204.54688 348.5L204.54688 344.45312Q204.54688 343.92188 204.32812 343.67188Q204.125 343.42188 203.57812 343.42188Q202.82812 343.42188 202.53125 344.14062L202.53125 348.5L200.84375 348.5L200.84375 344.46875Q200.84375 343.90625 200.625 343.67188Q200.40625 343.42188 199.89062 343.42188Q199.17188 343.42188 198.84375 344.01562L198.84375 348.5L197.15625 348.5L197.15625 342.15625L198.73438 342.15625Z" fill-rule="nonzero"/><path fill="#351c75" d="M234.5 344.0C234.5 347.31372 231.8137 350.0 228.5 350.0C225.1863 350.0 222.5 347.31372 222.5 344.0C222.5 340.68628 225.1863 338.0 228.5 338.0C231.8137 338.0 234.5 340.68628 234.5 344.0Z" fill-rule="nonzero"/><path fill="#1a1a1a" d="M248.07812 346.73438L245.0 346.73438L244.40625 348.5L242.54688 348.5L245.71875 339.96875L247.34375 339.96875L250.54688 348.5L248.67188 348.5L248.07812 346.73438ZM245.46875 345.3125L247.60938 345.3125L246.53125 342.125L245.46875 345.3125ZM250.89062 345.28125Q250.89062 343.79688 251.54688 342.92188Q252.21875 342.04688 253.375 342.04688Q254.29688 342.04688 254.90625 342.73438L254.90625 339.5L256.59375 339.5L256.59375 348.5L255.07812 348.5L254.98438 347.82812Q254.35938 348.625 253.35938 348.625Q252.23438 348.625 251.5625 347.75Q250.89062 346.85938 250.89062 345.28125ZM252.57812 345.40625Q252.57812 346.29688 252.89062 346.78125Q253.20312 347.25 253.79688 347.25Q254.57812 347.25 254.90625 346.57812L254.90625 344.07812Q254.57812 343.42188 253.8125 343.42188Q252.57812 343.42188 252.57812 345.40625ZM260.53125 346.4375L261.70312 342.15625L263.46875 342.15625L261.32812 348.5L259.71875 348.5L257.57812 342.15625L259.34375 342.15625L260.53125 346.4375ZM265.9375 348.5L264.23438 348.5L264.23438 342.15625L265.9375 342.15625L265.9375 348.5ZM264.14062 340.51562Q264.14062 340.14062 264.39062 339.89062Q264.65625 339.64062 265.09375 339.64062Q265.51562 339.64062 265.76562 339.89062Q266.03125 340.14062 266.03125 340.51562Q266.03125 340.90625 265.76562 341.15625Q265.51562 341.39062 265.07812 341.39062Q264.65625 341.39062 264.39062 341.15625Q264.14062 340.90625 264.14062 340.51562ZM270.57812 346.75Q270.57812 346.4375 270.26562 346.26562Q269.96875 346.07812 269.29688 345.9375Q267.03125 345.46875 267.03125 344.01562Q267.03125 343.17188 267.71875 342.60938Q268.42188 342.04688 269.5625 342.04688Q270.76562 342.04688 271.48438 342.60938Q272.21875 343.17188 272.21875 344.09375L270.51562 344.09375Q270.51562 343.71875 270.28125 343.48438Q270.04688 343.25 269.54688 343.25Q269.125 343.25 268.89062 343.45312Q268.65625 343.64062 268.65625 343.9375Q268.65625 344.21875 268.92188 344.39062Q269.1875 344.5625 269.8125 344.6875Q270.45312 344.8125 270.89062 344.96875Q272.23438 345.46875 272.23438 346.67188Q272.23438 347.54688 271.48438 348.09375Q270.75 348.625 269.5625 348.625Q268.76562 348.625 268.14062 348.34375Q267.53125 348.04688 267.17188 347.5625Q266.82812 347.0625 266.82812 346.48438L268.4375 346.48438Q268.45312 346.9375 268.76562 347.1875Q269.07812 347.42188 269.59375 347.42188Q270.09375 347.42188 270.32812 347.23438Q270.57812 347.04688 270.57812 346.75ZM272.89062 345.26562Q272.89062 344.32812 273.25 343.59375Q273.60938 342.84375 274.29688 342.45312Q274.98438 342.04688 275.875 342.04688Q277.17188 342.04688 277.96875 342.82812Q278.78125 343.60938 278.875 344.95312L278.89062 345.39062Q278.89062 346.85938 278.07812 347.75Q277.26562 348.625 275.89062 348.625Q274.51562 348.625 273.70312 347.75Q272.89062 346.85938 272.89062 345.34375L272.89062 345.26562ZM274.57812 345.39062Q274.57812 346.29688 274.92188 346.78125Q275.26562 347.25 275.89062 347.25Q276.51562 347.25 276.85938 346.78125Q277.20312 346.3125 277.20312 345.26562Q277.20312 344.39062 276.85938 343.90625Q276.51562 343.40625 275.875 343.40625Q275.26562 343.40625 274.92188 343.89062Q274.57812 344.375 274.57812 345.39062ZM283.71875 343.75Q283.375 343.70312 283.10938 343.70312Q282.14062 343.70312 281.84375 344.34375L281.84375 348.5L280.15625 348.5L280.15625 342.15625L281.75 342.15625L281.79688 342.92188Q282.3125 342.04688 283.20312 342.04688Q283.48438 342.04688 283.73438 342.125L283.71875 343.75ZM287.57812 346.75Q287.57812 346.4375 287.26562 346.26562Q286.96875 346.07812 286.29688 345.9375Q284.03125 345.46875 284.03125 344.01562Q284.03125 343.17188 284.71875 342.60938Q285.42188 342.04688 286.5625 342.04688Q287.76562 342.04688 288.48438 342.60938Q289.21875 343.17188 289.21875 344.09375L287.51562 344.09375Q287.51562 343.71875 287.28125 343.48438Q287.04688 343.25 286.54688 343.25Q286.125 343.25 285.89062 343.45312Q285.65625 343.64062 285.65625 343.9375Q285.65625 344.21875 285.92188 344.39062Q286.1875 344.5625 286.8125 344.6875Q287.45312 344.8125 287.89062 344.96875Q289.23438 345.46875 289.23438 346.67188Q289.23438 347.54688 288.48438 348.09375Q287.75 348.625 286.5625 348.625Q285.76562 348.625 285.14062 348.34375Q284.53125 348.04688 284.17188 347.5625Q283.82812 347.0625 283.82812 346.48438L285.4375 346.48438Q285.45312 346.9375 285.76562 347.1875Q286.07812 347.42188 286.59375 347.42188Q287.09375 347.42188 287.32812 347.23438Q287.57812 347.04688 287.57812 346.75Z" fill-rule="nonzero"/><path fill="#6fa8dc" d="M317.5 344.0C317.5 347.31372 314.81372 350.0 311.5 350.0C308.18628 350.0 305.5 347.31372 305.5 344.0C305.5 340.68628 308.18628 338.0 311.5 338.0C314.81372 338.0 317.5 340.68628 317.5 344.0Z" fill-rule="nonzero"/><path fill="#1a1a1a" d="M331.39062 344.79688L328.01562 344.79688L328.01562 347.09375L331.98438 347.09375L331.98438 348.5L326.26562 348.5L326.26562 339.96875L331.96875 339.96875L331.96875 341.39062L328.01562 341.39062L328.01562 343.42188L331.39062 343.42188L331.39062 344.79688ZM335.78125 347.25Q336.25 347.25 336.54688 347.0Q336.84375 346.73438 336.85938 346.3125L338.4375 346.3125Q338.4375 346.95312 338.09375 347.5Q337.75 348.03125 337.14062 348.32812Q336.54688 348.625 335.8125 348.625Q334.45312 348.625 333.67188 347.76562Q332.89062 346.89062 332.89062 345.35938L332.89062 345.25Q332.89062 343.78125 333.67188 342.92188Q334.45312 342.04688 335.8125 342.04688Q337.0 342.04688 337.71875 342.71875Q338.4375 343.39062 338.4375 344.51562L336.85938 344.51562Q336.84375 344.03125 336.54688 343.71875Q336.25 343.40625 335.78125 343.40625Q335.1875 343.40625 334.875 343.84375Q334.57812 344.28125 334.57812 345.23438L334.57812 345.42188Q334.57812 346.39062 334.875 346.82812Q335.17188 347.25 335.78125 347.25ZM338.89062 345.26562Q338.89062 344.32812 339.25 343.59375Q339.60938 342.84375 340.29688 342.45312Q340.98438 342.04688 341.875 342.04688Q343.17188 342.04688 343.96875 342.82812Q344.78125 343.60938 344.875 344.95312L344.89062 345.39062Q344.89062 346.85938 344.07812 347.75Q343.26562 348.625 341.89062 348.625Q340.51562 348.625 339.70312 347.75Q338.89062 346.85938 338.89062 345.34375L338.89062 345.26562ZM340.57812 345.39062Q340.57812 346.29688 340.92188 346.78125Q341.26562 347.25 341.89062 347.25Q342.51562 347.25 342.85938 346.78125Q343.20312 346.3125 343.20312 345.26562Q343.20312 344.39062 342.85938 343.90625Q342.51562 343.40625 341.875 343.40625Q341.26562 343.40625 340.92188 343.89062Q340.57812 344.375 340.57812 345.39062ZM349.57812 346.75Q349.57812 346.4375 349.26562 346.26562Q348.96875 346.07812 348.29688 345.9375Q346.03125 345.46875 346.03125 344.01562Q346.03125 343.17188 346.71875 342.60938Q347.42188 342.04688 348.5625 342.04688Q349.76562 342.04688 350.48438 342.60938Q351.21875 343.17188 351.21875 344.09375L349.51562 344.09375Q349.51562 343.71875 349.28125 343.48438Q349.04688 343.25 348.54688 343.25Q348.125 343.25 347.89062 343.45312Q347.65625 343.64062 347.65625 343.9375Q347.65625 344.21875 347.92188 344.39062Q348.1875 344.5625 348.8125 344.6875Q349.45312 344.8125 349.89062 344.96875Q351.23438 345.46875 351.23438 346.67188Q351.23438 347.54688 350.48438 348.09375Q349.75 348.625 348.5625 348.625Q347.76562 348.625 347.14062 348.34375Q346.53125 348.04688 346.17188 347.5625Q345.82812 347.0625 345.82812 346.48438L347.4375 346.48438Q347.45312 346.9375 347.76562 347.1875Q348.07812 347.42188 348.59375 347.42188Q349.09375 347.42188 349.32812 347.23438Q349.57812 347.04688 349.57812 346.75ZM354.51562 346.10938L355.6875 342.15625L357.5 342.15625L354.95312 349.48438L354.8125 349.8125Q354.25 351.0625 352.9375 351.0625Q352.57812 351.0625 352.1875 350.95312L352.1875 349.67188L352.45312 349.67188Q352.9375 349.67188 353.17188 349.51562Q353.40625 349.375 353.54688 349.04688L353.73438 348.51562L351.51562 342.15625L353.34375 342.15625L354.51562 346.10938ZM361.57812 346.75Q361.57812 346.4375 361.26562 346.26562Q360.96875 346.07812 360.29688 345.9375Q358.03125 345.46875 358.03125 344.01562Q358.03125 343.17188 358.71875 342.60938Q359.42188 342.04688 360.5625 342.04688Q361.76562 342.04688 362.48438 342.60938Q363.21875 343.17188 363.21875 344.09375L361.51562 344.09375Q361.51562 343.71875 361.28125 343.48438Q361.04688 343.25 360.54688 343.25Q360.125 343.25 359.89062 343.45312Q359.65625 343.64062 359.65625 343.9375Q359.65625 344.21875 359.92188 344.39062Q360.1875 344.5625 360.8125 344.6875Q361.45312 344.8125 361.89062 344.96875Q363.23438 345.46875 363.23438 346.67188Q363.23438 347.54688 362.48438 348.09375Q361.75 348.625 360.5625 348.625Q359.76562 348.625 359.14062 348.34375Q358.53125 348.04688 358.17188 347.5625Q357.82812 347.0625 357.82812 346.48438L359.4375 346.48438Q359.45312 346.9375 359.76562 347.1875Q360.07812 347.42188 360.59375 347.42188Q361.09375 347.42188 361.32812 347.23438Q361.57812 347.04688 361.57812 346.75ZM366.17188 340.59375L366.17188 342.15625L367.26562 342.15625L367.26562 343.40625L366.17188 343.40625L366.17188 346.5625Q366.17188 346.92188 366.3125 347.07812Q366.45312 347.21875 366.82812 347.21875Q367.10938 347.21875 367.32812 347.1875L367.32812 348.46875Q366.82812 348.625 366.29688 348.625Q364.51562 348.625 364.48438 346.8125L364.48438 343.40625L363.5625 343.40625L363.5625 342.15625L364.48438 342.15625L364.48438 340.59375L366.17188 340.59375ZM371.0625 348.625Q369.67188 348.625 368.79688 347.76562Q367.92188 346.90625 367.92188 345.48438L367.92188 345.3125Q367.92188 344.35938 368.28125 343.60938Q368.65625 342.85938 369.32812 342.45312Q370.01562 342.04688 370.875 342.04688Q372.1875 342.04688 372.92188 342.875Q373.67188 343.6875 373.67188 345.1875L373.67188 345.875L369.64062 345.875Q369.71875 346.5 370.125 346.875Q370.54688 347.25 371.1875 347.25Q372.15625 347.25 372.70312 346.54688L373.54688 347.46875Q373.15625 348.01562 372.5 348.32812Q371.85938 348.625 371.0625 348.625ZM370.875 343.40625Q370.375 343.40625 370.0625 343.75Q369.75 344.09375 369.65625 344.71875L372.01562 344.71875L372.01562 344.59375Q372.0 344.03125 371.70312 343.71875Q371.42188 343.40625 370.875 343.40625ZM375.73438 342.15625L375.79688 342.875Q376.46875 342.04688 377.60938 342.04688Q378.84375 342.04688 379.29688 343.01562Q379.96875 342.04688 381.20312 342.04688Q382.23438 342.04688 382.73438 342.65625Q383.23438 343.25 383.23438 344.45312L383.23438 348.5L381.54688 348.5L381.54688 344.45312Q381.54688 343.92188 381.32812 343.67188Q381.125 343.42188 380.57812 343.42188Q379.82812 343.42188 379.53125 344.14062L379.53125 348.5L377.84375 348.5L377.84375 344.46875Q377.84375 343.90625 377.625 343.67188Q377.40625 343.42188 376.89062 343.42188Q376.17188 343.42188 375.84375 344.01562L375.84375 348.5L374.15625 348.5L374.15625 342.15625L375.73438 342.15625ZM389.01562 345.5L389.01562 348.5L387.26562 348.5L387.26562 339.96875L390.59375 339.96875Q391.54688 339.96875 392.28125 340.32812Q393.01562 340.67188 393.40625 341.32812Q393.79688 341.96875 393.79688 342.79688Q393.79688 344.04688 392.9375 344.78125Q392.07812 345.5 390.5625 345.5L389.01562 345.5ZM389.01562 344.0625L390.59375 344.0625Q391.28125 344.0625 391.64062 343.73438Q392.01562 343.40625 392.01562 342.79688Q392.01562 342.17188 391.64062 341.79688Q391.28125 341.40625 390.625 341.39062L389.01562 341.39062L389.01562 344.0625ZM398.82812 348.5Q398.70312 348.26562 398.65625 347.9375Q398.04688 348.625 397.0625 348.625Q396.125 348.625 395.51562 348.07812Q394.90625 347.53125 394.90625 346.71875Q394.90625 345.70312 395.64062 345.17188Q396.39062 344.625 397.8125 344.625L398.57812 344.625L398.57812 344.26562Q398.57812 343.82812 398.35938 343.5625Q398.14062 343.29688 397.64062 343.29688Q397.21875 343.29688 396.96875 343.5Q396.73438 343.70312 396.73438 344.0625L395.04688 344.0625Q395.04688 343.51562 395.375 343.04688Q395.71875 342.57812 396.34375 342.3125Q396.96875 342.04688 397.73438 342.04688Q398.90625 342.04688 399.59375 342.64062Q400.28125 343.21875 400.28125 344.28125L400.28125 347.03125Q400.29688 347.9375 400.53125 348.40625L400.53125 348.5L398.82812 348.5ZM397.42188 347.32812Q397.79688 347.32812 398.10938 347.15625Q398.4375 346.98438 398.57812 346.70312L398.57812 345.60938L397.95312 345.60938Q396.6875 345.60938 396.59375 346.5L396.59375 346.59375Q396.59375 346.90625 396.8125 347.125Q397.03125 347.32812 397.42188 347.32812ZM404.71875 343.75Q404.375 343.70312 404.10938 343.70312Q403.14062 343.70312 402.84375 344.34375L402.84375 348.5L401.15625 348.5L401.15625 342.15625L402.75 342.15625L402.79688 342.92188Q403.3125 342.04688 404.20312 342.04688Q404.48438 342.04688 404.73438 342.125L404.71875 343.75ZM407.17188 340.59375L407.17188 342.15625L408.26562 342.15625L408.26562 343.40625L407.17188 343.40625L407.17188 346.5625Q407.17188 346.92188 407.3125 347.07812Q407.45312 347.21875 407.82812 347.21875Q408.10938 347.21875 408.32812 347.1875L408.32812 348.46875Q407.82812 348.625 407.29688 348.625Q405.51562 348.625 405.48438 346.8125L405.48438 343.40625L404.5625 343.40625L404.5625 342.15625L405.48438 342.15625L405.48438 340.59375L407.17188 340.59375ZM410.70312 342.15625L410.76562 342.89062Q411.4375 342.04688 412.57812 342.04688Q413.59375 342.04688 414.07812 342.64062Q414.57812 343.21875 414.59375 344.40625L414.59375 348.5L412.89062 348.5L412.89062 344.4375Q412.89062 343.90625 412.65625 343.67188Q412.42188 343.42188 411.875 343.42188Q411.17188 343.42188 410.8125 344.03125L410.8125 348.5L409.10938 348.5L409.10938 342.15625L410.70312 342.15625ZM419.0625 348.625Q417.67188 348.625 416.79688 347.76562Q415.92188 346.90625 415.92188 345.48438L415.92188 345.3125Q415.92188 344.35938 416.28125 343.60938Q416.65625 342.85938 417.32812 342.45312Q418.01562 342.04688 418.875 342.04688Q420.1875 342.04688 420.92188 342.875Q421.67188 343.6875 421.67188 345.1875L421.67188 345.875L417.64062 345.875Q417.71875 346.5 418.125 346.875Q418.54688 347.25 419.1875 347.25Q420.15625 347.25 420.70312 346.54688L421.54688 347.46875Q421.15625 348.01562 420.5 348.32812Q419.85938 348.625 419.0625 348.625ZM418.875 343.40625Q418.375 343.40625 418.0625 343.75Q417.75 344.09375 417.65625 344.71875L420.01562 344.71875L420.01562 344.59375Q420.0 344.03125 419.70312 343.71875Q419.42188 343.40625 418.875 343.40625ZM425.71875 343.75Q425.375 343.70312 425.10938 343.70312Q424.14062 343.70312 423.84375 344.34375L423.84375 348.5L422.15625 348.5L422.15625 342.15625L423.75 342.15625L423.79688 342.92188Q424.3125 342.04688 425.20312 342.04688Q425.48438 342.04688 425.73438 342.125L425.71875 343.75ZM429.57812 346.75Q429.57812 346.4375 429.26562 346.26562Q428.96875 346.07812 428.29688 345.9375Q426.03125 345.46875 426.03125 344.01562Q426.03125 343.17188 426.71875 342.60938Q427.42188 342.04688 428.5625 342.04688Q429.76562 342.04688 430.48438 342.60938Q431.21875 343.17188 431.21875 344.09375L429.51562 344.09375Q429.51562 343.71875 429.28125 343.48438Q429.04688 343.25 428.54688 343.25Q428.125 343.25 427.89062 343.45312Q427.65625 343.64062 427.65625 343.9375Q427.65625 344.21875 427.92188 344.39062Q428.1875 344.5625 428.8125 344.6875Q429.45312 344.8125 429.89062 344.96875Q431.23438 345.46875 431.23438 346.67188Q431.23438 347.54688 430.48438 348.09375Q429.75 348.625 428.5625 348.625Q427.76562 348.625 427.14062 348.34375Q426.53125 348.04688 426.17188 347.5625Q425.82812 347.0625 425.82812 346.48438L427.4375 346.48438Q427.45312 346.9375 427.76562 347.1875Q428.07812 347.42188 428.59375 347.42188Q429.09375 347.42188 429.32812 347.23438Q429.57812 347.04688 429.57812 346.75Z" fill-rule="nonzero"/><path fill="#93c47d" d="M459.5 344.0C459.5 347.31372 456.81372 350.0 453.5 350.0C450.18628 350.0 447.5 347.31372 447.5 344.0C447.5 340.68628 450.18628 338.0 453.5 338.0C456.81372 338.0 459.5 340.68628 459.5 344.0Z" fill-rule="nonzero"/><path fill="#1a1a1a" d="M474.95312 345.65625Q474.85938 347.03125 473.9375 347.82812Q473.03125 348.625 471.53125 348.625Q469.89062 348.625 468.9375 347.51562Q468.0 346.40625 468.0 344.48438L468.0 343.95312Q468.0 342.73438 468.4375 341.79688Q468.875 340.85938 469.67188 340.35938Q470.48438 339.84375 471.54688 339.84375Q473.03125 339.84375 473.92188 340.64062Q474.82812 341.4375 474.96875 342.85938L473.21875 342.85938Q473.15625 342.03125 472.75 341.67188Q472.35938 341.29688 471.54688 341.29688Q470.67188 341.29688 470.23438 341.92188Q469.79688 342.54688 469.78125 343.875L469.78125 344.51562Q469.78125 345.90625 470.20312 346.54688Q470.625 347.1875 471.53125 347.1875Q472.34375 347.1875 472.73438 346.8125Q473.14062 346.4375 473.20312 345.65625L474.95312 345.65625ZM475.89062 345.26562Q475.89062 344.32812 476.25 343.59375Q476.60938 342.84375 477.29688 342.45312Q477.98438 342.04688 478.875 342.04688Q480.17188 342.04688 480.96875 342.82812Q481.78125 343.60938 481.875 344.95312L481.89062 345.39062Q481.89062 346.85938 481.07812 347.75Q480.26562 348.625 478.89062 348.625Q477.51562 348.625 476.70312 347.75Q475.89062 346.85938 475.89062 345.34375L475.89062 345.26562ZM477.57812 345.39062Q477.57812 346.29688 477.92188 346.78125Q478.26562 347.25 478.89062 347.25Q479.51562 347.25 479.85938 346.78125Q480.20312 346.3125 480.20312 345.26562Q480.20312 344.39062 479.85938 343.90625Q479.51562 343.40625 478.875 343.40625Q478.26562 343.40625 477.92188 343.89062Q477.57812 344.375 477.57812 345.39062ZM484.73438 342.15625L484.79688 342.875Q485.46875 342.04688 486.60938 342.04688Q487.84375 342.04688 488.29688 343.01562Q488.96875 342.04688 490.20312 342.04688Q491.23438 342.04688 491.73438 342.65625Q492.23438 343.25 492.23438 344.45312L492.23438 348.5L490.54688 348.5L490.54688 344.45312Q490.54688 343.92188 490.32812 343.67188Q490.125 343.42188 489.57812 343.42188Q488.82812 343.42188 488.53125 344.14062L488.53125 348.5L486.84375 348.5L486.84375 344.46875Q486.84375 343.90625 486.625 343.67188Q486.40625 343.42188 485.89062 343.42188Q485.17188 343.42188 484.84375 344.01562L484.84375 348.5L483.15625 348.5L483.15625 342.15625L484.73438 342.15625ZM494.73438 342.15625L494.79688 342.875Q495.46875 342.04688 496.60938 342.04688Q497.84375 342.04688 498.29688 343.01562Q498.96875 342.04688 500.20312 342.04688Q501.23438 342.04688 501.73438 342.65625Q502.23438 343.25 502.23438 344.45312L502.23438 348.5L500.54688 348.5L500.54688 344.45312Q500.54688 343.92188 500.32812 343.67188Q500.125 343.42188 499.57812 343.42188Q498.82812 343.42188 498.53125 344.14062L498.53125 348.5L496.84375 348.5L496.84375 344.46875Q496.84375 343.90625 496.625 343.67188Q496.40625 343.42188 495.89062 343.42188Q495.17188 343.42188 494.84375 344.01562L494.84375 348.5L493.15625 348.5L493.15625 342.15625L494.73438 342.15625ZM506.95312 347.85938Q506.32812 348.625 505.21875 348.625Q504.1875 348.625 503.65625 348.03125Q503.125 347.4375 503.10938 346.3125L503.10938 342.15625L504.79688 342.15625L504.79688 346.25Q504.79688 347.25 505.70312 347.25Q506.5625 347.25 506.89062 346.64062L506.89062 342.15625L508.59375 342.15625L508.59375 348.5L507.0 348.5L506.95312 347.85938ZM511.70312 342.15625L511.76562 342.89062Q512.4375 342.04688 513.5781 342.04688Q514.59375 342.04688 515.0781 342.64062Q515.5781 343.21875 515.59375 344.40625L515.59375 348.5L513.8906 348.5L513.8906 344.4375Q513.8906 343.90625 513.65625 343.67188Q513.4219 343.42188 512.875 343.42188Q512.1719 343.42188 511.8125 344.03125L511.8125 348.5L510.10938 348.5L510.10938 342.15625L511.70312 342.15625ZM518.9375 348.5L517.2344 348.5L517.2344 342.15625L518.9375 342.15625L518.9375 348.5ZM517.1406 340.51562Q517.1406 340.14062 517.3906 339.89062Q517.65625 339.64062 518.09375 339.64062Q518.5156 339.64062 518.7656 339.89062Q519.03125 340.14062 519.03125 340.51562Q519.03125 340.90625 518.7656 341.15625Q518.5156 341.39062 518.0781 341.39062Q517.65625 341.39062 517.3906 341.15625Q517.1406 340.90625 517.1406 340.51562ZM522.1719 340.59375L522.1719 342.15625L523.2656 342.15625L523.2656 343.40625L522.1719 343.40625L522.1719 346.5625Q522.1719 346.92188 522.3125 347.07812Q522.4531 347.21875 522.8281 347.21875Q523.1094 347.21875 523.3281 347.1875L523.3281 348.46875Q522.8281 348.625 522.2969 348.625Q520.5156 348.625 520.4844 346.8125L520.4844 343.40625L519.5625 343.40625L519.5625 342.15625L520.4844 342.15625L520.4844 340.59375L522.1719 340.59375ZM526.5156 346.10938L527.6875 342.15625L529.5 342.15625L526.9531 349.48438L526.8125 349.8125Q526.25 351.0625 524.9375 351.0625Q524.5781 351.0625 524.1875 350.95312L524.1875 349.67188L524.4531 349.67188Q524.9375 349.67188 525.1719 349.51562Q525.40625 349.375 525.5469 349.04688L525.7344 348.51562L523.5156 342.15625L525.34375 342.15625L526.5156 346.10938ZM536.4219 345.375L535.0156 345.375L535.0156 348.5L533.2656 348.5L533.2656 339.96875L536.4375 339.96875Q537.9375 339.96875 538.75 340.64062Q539.5781 341.3125 539.5781 342.54688Q539.5781 343.42188 539.2031 344.0Q538.8281 344.57812 538.0625 344.9375L539.90625 348.42188L539.90625 348.5L538.0156 348.5L536.4219 345.375ZM535.0156 343.95312L536.4375 343.95312Q537.09375 343.95312 537.4531 343.625Q537.8281 343.28125 537.8281 342.6875Q537.8281 342.07812 537.4844 341.73438Q537.1406 341.39062 536.4375 341.39062L535.0156 341.39062L535.0156 343.95312ZM544.0625 348.625Q542.6719 348.625 541.7969 347.76562Q540.9219 346.90625 540.9219 345.48438L540.9219 345.3125Q540.9219 344.35938 541.28125 343.60938Q541.65625 342.85938 542.3281 342.45312Q543.0156 342.04688 543.875 342.04688Q545.1875 342.04688 545.9219 342.875Q546.6719 343.6875 546.6719 345.1875L546.6719 345.875L542.6406 345.875Q542.71875 346.5 543.125 346.875Q543.5469 347.25 544.1875 347.25Q545.15625 347.25 545.7031 346.54688L546.5469 347.46875Q546.15625 348.01562 545.5 348.32812Q544.8594 348.625 544.0625 348.625ZM543.875 343.40625Q543.375 343.40625 543.0625 343.75Q542.75 344.09375 542.65625 344.71875L545.0156 344.71875L545.0156 344.59375Q545.0 344.03125 544.7031 343.71875Q544.4219 343.40625 543.875 343.40625ZM552.6719 346.20312L553.5 342.15625L555.125 342.15625L553.5156 348.5L552.09375 348.5L550.8906 344.51562L549.6875 348.5L548.28125 348.5L546.6719 342.15625L548.2969 342.15625L549.125 346.1875L550.28125 342.15625L551.5156 342.15625L552.6719 346.20312ZM559.8281 348.5Q559.7031 348.26562 559.65625 347.9375Q559.0469 348.625 558.0625 348.625Q557.125 348.625 556.5156 348.07812Q555.90625 347.53125 555.90625 346.71875Q555.90625 345.70312 556.6406 345.17188Q557.3906 344.625 558.8125 344.625L559.5781 344.625L559.5781 344.26562Q559.5781 343.82812 559.3594 343.5625Q559.1406 343.29688 558.6406 343.29688Q558.21875 343.29688 557.96875 343.5Q557.7344 343.70312 557.7344 344.0625L556.0469 344.0625Q556.0469 343.51562 556.375 343.04688Q556.71875 342.57812 557.34375 342.3125Q557.96875 342.04688 558.7344 342.04688Q559.90625 342.04688 560.59375 342.64062Q561.28125 343.21875 561.28125 344.28125L561.28125 347.03125Q561.2969 347.9375 561.53125 348.40625L561.53125 348.5L559.8281 348.5ZM558.4219 347.32812Q558.7969 347.32812 559.1094 347.15625Q559.4375 346.98438 559.5781 346.70312L559.5781 345.60938L558.9531 345.60938Q557.6875 345.60938 557.59375 346.5L557.59375 346.59375Q557.59375 346.90625 557.8125 347.125Q558.03125 347.32812 558.4219 347.32812ZM565.71875 343.75Q565.375 343.70312 565.1094 343.70312Q564.1406 343.70312 563.84375 344.34375L563.84375 348.5L562.15625 348.5L562.15625 342.15625L563.75 342.15625L563.7969 342.92188Q564.3125 342.04688 565.2031 342.04688Q565.4844 342.04688 565.7344 342.125L565.71875 343.75ZM565.8906 345.28125Q565.8906 343.79688 566.5469 342.92188Q567.21875 342.04688 568.375 342.04688Q569.2969 342.04688 569.90625 342.73438L569.90625 339.5L571.59375 339.5L571.59375 348.5L570.0781 348.5L569.9844 347.82812Q569.3594 348.625 568.3594 348.625Q567.2344 348.625 566.5625 347.75Q565.8906 346.85938 565.8906 345.28125ZM567.5781 345.40625Q567.5781 346.29688 567.8906 346.78125Q568.2031 347.25 568.7969 347.25Q569.5781 347.25 569.90625 346.57812L569.90625 344.07812Q569.5781 343.42188 568.8125 343.42188Q567.5781 343.42188 567.5781 345.40625ZM576.5781 346.75Q576.5781 346.4375 576.2656 346.26562Q575.96875 346.07812 575.2969 345.9375Q573.03125 345.46875 573.03125 344.01562Q573.03125 343.17188 573.71875 342.60938Q574.4219 342.04688 575.5625 342.04688Q576.7656 342.04688 577.4844 342.60938Q578.21875 343.17188 578.21875 344.09375L576.5156 344.09375Q576.5156 343.71875 576.28125 343.48438Q576.0469 343.25 575.5469 343.25Q575.125 343.25 574.8906 343.45312Q574.65625 343.64062 574.65625 343.9375Q574.65625 344.21875 574.9219 344.39062Q575.1875 344.5625 575.8125 344.6875Q576.4531 344.8125 576.8906 344.96875Q578.2344 345.46875 578.2344 346.67188Q578.2344 347.54688 577.4844 348.09375Q576.75 348.625 575.5625 348.625Q574.7656 348.625 574.1406 348.34375Q573.53125 348.04688 573.1719 347.5625Q572.8281 347.0625 572.8281 346.48438L574.4375 346.48438Q574.4531 346.9375 574.7656 347.1875Q575.0781 347.42188 575.59375 347.42188Q576.09375 347.42188 576.3281 347.23438Q576.5781 347.04688 576.5781 346.75Z" fill-rule="nonzero"/><path fill="#45818e" d="M203.0 363.0C203.0 366.31372 200.3137 369.0 197.0 369.0C193.6863 369.0 191.0 366.31372 191.0 363.0C191.0 359.68628 193.6863 357.0 197.0 357.0C200.3137 357.0 203.0 359.68628 203.0 363.0Z" fill-rule="nonzero"/><path fill="#1a1a1a" d="M218.45312 364.65625Q218.35938 366.03125 217.4375 366.82812Q216.53125 367.625 215.03125 367.625Q213.39062 367.625 212.4375 366.51562Q211.5 365.40625 211.5 363.48438L211.5 362.95312Q211.5 361.73438 211.9375 360.79688Q212.375 359.85938 213.17188 359.35938Q213.98438 358.84375 215.04688 358.84375Q216.53125 358.84375 217.42188 359.64062Q218.32812 360.4375 218.46875 361.85938L216.71875 361.85938Q216.65625 361.03125 216.25 360.67188Q215.85938 360.29688 215.04688 360.29688Q214.17188 360.29688 213.73438 360.92188Q213.29688 361.54688 213.28125 362.875L213.28125 363.51562Q213.28125 364.90625 213.70312 365.54688Q214.125 366.1875 215.03125 366.1875Q215.84375 366.1875 216.23438 365.8125Q216.64062 365.4375 216.70312 364.65625L218.45312 364.65625ZM219.39062 364.26562Q219.39062 363.32812 219.75 362.59375Q220.10938 361.84375 220.79688 361.45312Q221.48438 361.04688 222.375 361.04688Q223.67188 361.04688 224.46875 361.82812Q225.28125 362.60938 225.375 363.95312L225.39062 364.39062Q225.39062 365.85938 224.57812 366.75Q223.76562 367.625 222.39062 367.625Q221.01562 367.625 220.20312 366.75Q219.39062 365.85938 219.39062 364.34375L219.39062 364.26562ZM221.07812 364.39062Q221.07812 365.29688 221.42188 365.78125Q221.76562 366.25 222.39062 366.25Q223.01562 366.25 223.35938 365.78125Q223.70312 365.3125 223.70312 364.26562Q223.70312 363.39062 223.35938 362.90625Q223.01562 362.40625 222.375 362.40625Q221.76562 362.40625 221.42188 362.89062Q221.07812 363.375 221.07812 364.39062ZM228.23438 361.15625L228.29688 361.875Q228.96875 361.04688 230.10938 361.04688Q231.34375 361.04688 231.79688 362.01562Q232.46875 361.04688 233.70312 361.04688Q234.73438 361.04688 235.23438 361.65625Q235.73438 362.25 235.73438 363.45312L235.73438 367.5L234.04688 367.5L234.04688 363.45312Q234.04688 362.92188 233.82812 362.67188Q233.625 362.42188 233.07812 362.42188Q232.32812 362.42188 232.03125 363.14062L232.03125 367.5L230.34375 367.5L230.34375 363.46875Q230.34375 362.90625 230.125 362.67188Q229.90625 362.42188 229.39062 362.42188Q228.67188 362.42188 228.34375 363.01562L228.34375 367.5L226.65625 367.5L226.65625 361.15625L228.23438 361.15625ZM238.23438 361.15625L238.29688 361.875Q238.96875 361.04688 240.10938 361.04688Q241.34375 361.04688 241.79688 362.01562Q242.46875 361.04688 243.70312 361.04688Q244.73438 361.04688 245.23438 361.65625Q245.73438 362.25 245.73438 363.45312L245.73438 367.5L244.04688 367.5L244.04688 363.45312Q244.04688 362.92188 243.82812 362.67188Q243.625 362.42188 243.07812 362.42188Q242.32812 362.42188 242.03125 363.14062L242.03125 367.5L240.34375 367.5L240.34375 363.46875Q240.34375 362.90625 240.125 362.67188Q239.90625 362.42188 239.39062 362.42188Q238.67188 362.42188 238.34375 363.01562L238.34375 367.5L236.65625 367.5L236.65625 361.15625L238.23438 361.15625ZM250.45312 366.85938Q249.82812 367.625 248.71875 367.625Q247.6875 367.625 247.15625 367.03125Q246.625 366.4375 246.60938 365.3125L246.60938 361.15625L248.29688 361.15625L248.29688 365.25Q248.29688 366.25 249.20312 366.25Q250.0625 366.25 250.39062 365.64062L250.39062 361.15625L252.09375 361.15625L252.09375 367.5L250.5 367.5L250.45312 366.85938ZM255.20312 361.15625L255.26562 361.89062Q255.9375 361.04688 257.07812 361.04688Q258.09375 361.04688 258.57812 361.64062Q259.07812 362.21875 259.09375 363.40625L259.09375 367.5L257.39062 367.5L257.39062 363.4375Q257.39062 362.90625 257.15625 362.67188Q256.92188 362.42188 256.375 362.42188Q255.67188 362.42188 255.3125 363.03125L255.3125 367.5L253.60938 367.5L253.60938 361.15625L255.20312 361.15625ZM262.4375 367.5L260.73438 367.5L260.73438 361.15625L262.4375 361.15625L262.4375 367.5ZM260.64062 359.51562Q260.64062 359.14062 260.89062 358.89062Q261.15625 358.64062 261.59375 358.64062Q262.01562 358.64062 262.26562 358.89062Q262.53125 359.14062 262.53125 359.51562Q262.53125 359.90625 262.26562 360.15625Q262.01562 360.39062 261.57812 360.39062Q261.15625 360.39062 260.89062 360.15625Q260.64062 359.90625 260.64062 359.51562ZM265.67188 359.59375L265.67188 361.15625L266.76562 361.15625L266.76562 362.40625L265.67188 362.40625L265.67188 365.5625Q265.67188 365.92188 265.8125 366.07812Q265.95312 366.21875 266.32812 366.21875Q266.60938 366.21875 266.82812 366.1875L266.82812 367.46875Q266.32812 367.625 265.79688 367.625Q264.01562 367.625 263.98438 365.8125L263.98438 362.40625L263.0625 362.40625L263.0625 361.15625L263.98438 361.15625L263.98438 359.59375L265.67188 359.59375ZM270.01562 365.10938L271.1875 361.15625L273.0 361.15625L270.45312 368.48438L270.3125 368.8125Q269.75 370.0625 268.4375 370.0625Q268.07812 370.0625 267.6875 369.95312L267.6875 368.67188L267.95312 368.67188Q268.4375 368.67188 268.67188 368.51562Q268.90625 368.375 269.04688 368.04688L269.23438 367.51562L267.01562 361.15625L268.84375 361.15625L270.01562 365.10938ZM283.1875 360.39062L280.57812 360.39062L280.57812 367.5L278.8125 367.5L278.8125 360.39062L276.23438 360.39062L276.23438 358.96875L283.1875 358.96875L283.1875 360.39062ZM287.21875 362.75Q286.875 362.70312 286.60938 362.70312Q285.64062 362.70312 285.34375 363.34375L285.34375 367.5L283.65625 367.5L283.65625 361.15625L285.25 361.15625L285.29688 361.92188Q285.8125 361.04688 286.70312 361.04688Q286.98438 361.04688 287.23438 361.125L287.21875 362.75ZM290.5625 367.625Q289.17188 367.625 288.29688 366.76562Q287.42188 365.90625 287.42188 364.48438L287.42188 364.3125Q287.42188 363.35938 287.78125 362.60938Q288.15625 361.85938 288.82812 361.45312Q289.51562 361.04688 290.375 361.04688Q291.6875 361.04688 292.42188 361.875Q293.17188 362.6875 293.17188 364.1875L293.17188 364.875L289.14062 364.875Q289.21875 365.5 289.625 365.875Q290.04688 366.25 290.6875 366.25Q291.65625 366.25 292.20312 365.54688L293.04688 366.46875Q292.65625 367.01562 292.0 367.32812Q291.35938 367.625 290.5625 367.625ZM290.375 362.40625Q289.875 362.40625 289.5625 362.75Q289.25 363.09375 289.15625 363.71875L291.51562 363.71875L291.51562 363.59375Q291.5 363.03125 291.20312 362.71875Q290.92188 362.40625 290.375 362.40625ZM297.32812 367.5Q297.20312 367.26562 297.15625 366.9375Q296.54688 367.625 295.5625 367.625Q294.625 367.625 294.01562 367.07812Q293.40625 366.53125 293.40625 365.71875Q293.40625 364.70312 294.14062 364.17188Q294.89062 363.625 296.3125 363.625L297.07812 363.625L297.07812 363.26562Q297.07812 362.82812 296.85938 362.5625Q296.64062 362.29688 296.14062 362.29688Q295.71875 362.29688 295.46875 362.5Q295.23438 362.70312 295.23438 363.0625L293.54688 363.0625Q293.54688 362.51562 293.875 362.04688Q294.21875 361.57812 294.84375 361.3125Q295.46875 361.04688 296.23438 361.04688Q297.40625 361.04688 298.09375 361.64062Q298.78125 362.21875 298.78125 363.28125L298.78125 366.03125Q298.79688 366.9375 299.03125 367.40625L299.03125 367.5L297.32812 367.5ZM295.92188 366.32812Q296.29688 366.32812 296.60938 366.15625Q296.9375 365.98438 297.07812 365.70312L297.07812 364.60938L296.45312 364.60938Q295.1875 364.60938 295.09375 365.5L295.09375 365.59375Q295.09375 365.90625 295.3125 366.125Q295.53125 366.32812 295.92188 366.32812ZM303.07812 365.75Q303.07812 365.4375 302.76562 365.26562Q302.46875 365.07812 301.79688 364.9375Q299.53125 364.46875 299.53125 363.01562Q299.53125 362.17188 300.21875 361.60938Q300.92188 361.04688 302.0625 361.04688Q303.26562 361.04688 303.98438 361.60938Q304.71875 362.17188 304.71875 363.09375L303.01562 363.09375Q303.01562 362.71875 302.78125 362.48438Q302.54688 362.25 302.04688 362.25Q301.625 362.25 301.39062 362.45312Q301.15625 362.64062 301.15625 362.9375Q301.15625 363.21875 301.42188 363.39062Q301.6875 363.5625 302.3125 363.6875Q302.95312 363.8125 303.39062 363.96875Q304.73438 364.46875 304.73438 365.67188Q304.73438 366.54688 303.98438 367.09375Q303.25 367.625 302.0625 367.625Q301.26562 367.625 300.64062 367.34375Q300.03125 367.04688 299.67188 366.5625Q299.32812 366.0625 299.32812 365.48438L300.9375 365.48438Q300.95312 365.9375 301.26562 366.1875Q301.57812 366.42188 302.09375 366.42188Q302.59375 366.42188 302.82812 366.23438Q303.07812 366.04688 303.07812 365.75ZM309.45312 366.85938Q308.82812 367.625 307.71875 367.625Q306.6875 367.625 306.15625 367.03125Q305.625 366.4375 305.60938 365.3125L305.60938 361.15625L307.29688 361.15625L307.29688 365.25Q307.29688 366.25 308.20312 366.25Q309.0625 366.25 309.39062 365.64062L309.39062 361.15625L311.09375 361.15625L311.09375 367.5L309.5 367.5L309.45312 366.85938ZM316.21875 362.75Q315.875 362.70312 315.60938 362.70312Q314.64062 362.70312 314.34375 363.34375L314.34375 367.5L312.65625 367.5L312.65625 361.15625L314.25 361.15625L314.29688 361.92188Q314.8125 361.04688 315.70312 361.04688Q315.98438 361.04688 316.23438 361.125L316.21875 362.75ZM319.01562 365.10938L320.1875 361.15625L322.0 361.15625L319.45312 368.48438L319.3125 368.8125Q318.75 370.0625 317.4375 370.0625Q317.07812 370.0625 316.6875 369.95312L316.6875 368.67188L316.95312 368.67188Q317.4375 368.67188 317.67188 368.51562Q317.90625 368.375 318.04688 368.04688L318.23438 367.51562L316.01562 361.15625L317.84375 361.15625L319.01562 365.10938Z" fill-rule="nonzero"/><path fill="#e69138" d="M350.0 363.0C350.0 366.31372 347.31372 369.0 344.0 369.0C340.68628 369.0 338.0 366.31372 338.0 363.0C338.0 359.68628 340.68628 357.0 344.0 357.0C347.31372 357.0 350.0 359.68628 350.0 363.0Z" fill-rule="nonzero"/><path fill="#1a1a1a" d="M360.625 367.5L358.875 367.5L358.875 358.96875L360.625 358.96875L360.625 367.5ZM364.20312 361.15625L364.26562 361.89062Q364.9375 361.04688 366.07812 361.04688Q367.09375 361.04688 367.57812 361.64062Q368.07812 362.21875 368.09375 363.40625L368.09375 367.5L366.39062 367.5L366.39062 363.4375Q366.39062 362.90625 366.15625 362.67188Q365.92188 362.42188 365.375 362.42188Q364.67188 362.42188 364.3125 363.03125L364.3125 367.5L362.60938 367.5L362.60938 361.15625L364.20312 361.15625ZM371.4375 367.5L369.73438 367.5L369.73438 361.15625L371.4375 361.15625L371.4375 367.5ZM369.64062 359.51562Q369.64062 359.14062 369.89062 358.89062Q370.15625 358.64062 370.59375 358.64062Q371.01562 358.64062 371.26562 358.89062Q371.53125 359.14062 371.53125 359.51562Q371.53125 359.90625 371.26562 360.15625Q371.01562 360.39062 370.57812 360.39062Q370.15625 360.39062 369.89062 360.15625Q369.64062 359.90625 369.64062 359.51562ZM374.67188 359.59375L374.67188 361.15625L375.76562 361.15625L375.76562 362.40625L374.67188 362.40625L374.67188 365.5625Q374.67188 365.92188 374.8125 366.07812Q374.95312 366.21875 375.32812 366.21875Q375.60938 366.21875 375.82812 366.1875L375.82812 367.46875Q375.32812 367.625 374.79688 367.625Q373.01562 367.625 372.98438 365.8125L372.98438 362.40625L372.0625 362.40625L372.0625 361.15625L372.98438 361.15625L372.98438 359.59375L374.67188 359.59375ZM378.4375 367.5L376.73438 367.5L376.73438 361.15625L378.4375 361.15625L378.4375 367.5ZM376.64062 359.51562Q376.64062 359.14062 376.89062 358.89062Q377.15625 358.64062 377.59375 358.64062Q378.01562 358.64062 378.26562 358.89062Q378.53125 359.14062 378.53125 359.51562Q378.53125 359.90625 378.26562 360.15625Q378.01562 360.39062 377.57812 360.39062Q377.15625 360.39062 376.89062 360.15625Q376.64062 359.90625 376.64062 359.51562ZM383.32812 367.5Q383.20312 367.26562 383.15625 366.9375Q382.54688 367.625 381.5625 367.625Q380.625 367.625 380.01562 367.07812Q379.40625 366.53125 379.40625 365.71875Q379.40625 364.70312 380.14062 364.17188Q380.89062 363.625 382.3125 363.625L383.07812 363.625L383.07812 363.26562Q383.07812 362.82812 382.85938 362.5625Q382.64062 362.29688 382.14062 362.29688Q381.71875 362.29688 381.46875 362.5Q381.23438 362.70312 381.23438 363.0625L379.54688 363.0625Q379.54688 362.51562 379.875 362.04688Q380.21875 361.57812 380.84375 361.3125Q381.46875 361.04688 382.23438 361.04688Q383.40625 361.04688 384.09375 361.64062Q384.78125 362.21875 384.78125 363.28125L384.78125 366.03125Q384.79688 366.9375 385.03125 367.40625L385.03125 367.5L383.32812 367.5ZM381.92188 366.32812Q382.29688 366.32812 382.60938 366.15625Q382.9375 365.98438 383.07812 365.70312L383.07812 364.60938L382.45312 364.60938Q381.1875 364.60938 381.09375 365.5L381.09375 365.59375Q381.09375 365.90625 381.3125 366.125Q381.53125 366.32812 381.92188 366.32812ZM387.4375 367.5L385.73438 367.5L385.73438 358.5L387.4375 358.5L387.4375 367.5ZM393.51562 366.09375L397.25 366.09375L397.25 367.5L391.76562 367.5L391.76562 358.96875L393.51562 358.96875L393.51562 366.09375ZM400.4375 367.5L398.73438 367.5L398.73438 361.15625L400.4375 361.15625L400.4375 367.5ZM398.64062 359.51562Q398.64062 359.14062 398.89062 358.89062Q399.15625 358.64062 399.59375 358.64062Q400.01562 358.64062 400.26562 358.89062Q400.53125 359.14062 400.53125 359.51562Q400.53125 359.90625 400.26562 360.15625Q400.01562 360.39062 399.57812 360.39062Q399.15625 360.39062 398.89062 360.15625Q398.64062 359.90625 398.64062 359.51562ZM401.39062 364.26562Q401.39062 362.78125 402.04688 361.92188Q402.71875 361.04688 403.875 361.04688Q404.89062 361.04688 405.5 361.82812L405.60938 361.15625L407.09375 361.15625L407.09375 369.9375L405.40625 369.9375L405.40625 366.95312Q404.8125 367.625 403.85938 367.625Q402.73438 367.625 402.0625 366.75Q401.39062 365.85938 401.39062 364.26562ZM403.07812 364.39062Q403.07812 365.29688 403.39062 365.78125Q403.71875 366.25 404.29688 366.25Q405.07812 366.25 405.40625 365.625L405.40625 363.01562Q405.07812 362.40625 404.3125 362.40625Q403.71875 362.40625 403.39062 362.89062Q403.07812 363.35938 403.07812 364.39062ZM412.45312 366.85938Q411.82812 367.625 410.71875 367.625Q409.6875 367.625 409.15625 367.03125Q408.625 366.4375 408.60938 365.3125L408.60938 361.15625L410.29688 361.15625L410.29688 365.25Q410.29688 366.25 411.20312 366.25Q412.0625 366.25 412.39062 365.64062L412.39062 361.15625L414.09375 361.15625L414.09375 367.5L412.5 367.5L412.45312 366.85938ZM417.4375 367.5L415.73438 367.5L415.73438 361.15625L417.4375 361.15625L417.4375 367.5ZM415.64062 359.51562Q415.64062 359.14062 415.89062 358.89062Q416.15625 358.64062 416.59375 358.64062Q417.01562 358.64062 417.26562 358.89062Q417.53125 359.14062 417.53125 359.51562Q417.53125 359.90625 417.26562 360.15625Q417.01562 360.39062 416.57812 360.39062Q416.15625 360.39062 415.89062 360.15625Q415.64062 359.90625 415.64062 359.51562ZM418.39062 364.28125Q418.39062 362.79688 419.04688 361.92188Q419.71875 361.04688 420.875 361.04688Q421.79688 361.04688 422.40625 361.73438L422.40625 358.5L424.09375 358.5L424.09375 367.5L422.57812 367.5L422.48438 366.82812Q421.85938 367.625 420.85938 367.625Q419.73438 367.625 419.0625 366.75Q418.39062 365.85938 418.39062 364.28125ZM420.07812 364.40625Q420.07812 365.29688 420.39062 365.78125Q420.70312 366.25 421.29688 366.25Q422.07812 366.25 422.40625 365.57812L422.40625 363.07812Q422.07812 362.42188 421.3125 362.42188Q420.07812 362.42188 420.07812 364.40625ZM427.4375 367.5L425.73438 367.5L425.73438 361.15625L427.4375 361.15625L427.4375 367.5ZM425.64062 359.51562Q425.64062 359.14062 425.89062 358.89062Q426.15625 358.64062 426.59375 358.64062Q427.01562 358.64062 427.26562 358.89062Q427.53125 359.14062 427.53125 359.51562Q427.53125 359.90625 427.26562 360.15625Q427.01562 360.39062 426.57812 360.39062Q426.15625 360.39062 425.89062 360.15625Q425.64062 359.90625 425.64062 359.51562ZM430.67188 359.59375L430.67188 361.15625L431.76562 361.15625L431.76562 362.40625L430.67188 362.40625L430.67188 365.5625Q430.67188 365.92188 430.8125 366.07812Q430.95312 366.21875 431.32812 366.21875Q431.60938 366.21875 431.82812 366.1875L431.82812 367.46875Q431.32812 367.625 430.79688 367.625Q429.01562 367.625 428.98438 365.8125L428.98438 362.40625L428.0625 362.40625L428.0625 361.15625L428.98438 361.15625L428.98438 359.59375L430.67188 359.59375ZM435.01562 365.10938L436.1875 361.15625L438.0 361.15625L435.45312 368.48438L435.3125 368.8125Q434.75 370.0625 433.4375 370.0625Q433.07812 370.0625 432.6875 369.95312L432.6875 368.67188L432.95312 368.67188Q433.4375 368.67188 433.67188 368.51562Q433.90625 368.375 434.04688 368.04688L434.23438 367.51562L432.01562 361.15625L433.84375 361.15625L435.01562 365.10938Z" fill-rule="nonzero"/></svg>